<?xml version="1.0" standalone="no"?>
<!DOCTYPE svg PUBLIC "-//W3C//DTD SVG 20010904//EN"
 "http://www.w3.org/TR/2001/REC-SVG-20010904/DTD/svg10.dtd">
<svg version="1.0" xmlns="http://www.w3.org/2000/svg"
 width="1237.000000pt" height="1920.000000pt" viewBox="0 0 1237.000000 1920.000000"
 preserveAspectRatio="xMidYMid meet">
<metadata>
Created by potrace 1.15, written by Peter Selinger 2001-2017
</metadata>
<g transform="translate(0.000000,1920.000000) scale(0.100000,-0.100000)"
fill="#000000" stroke="none">
<path d="M2813 19166 c-39 -47 -111 -180 -156 -286 -174 -412 -201 -1077 -76
-1840 72 -439 156 -744 367 -1330 80 -222 156 -484 138 -477 -10 4 -315 202
-494 320 -52 35 -155 148 -595 657 -579 668 -820 942 -888 1007 -117 110 -244
122 -309 28 -43 -62 -57 -123 -43 -182 73 -303 121 -432 240 -641 134 -236
137 -247 208 -802 34 -259 58 -338 182 -579 115 -223 115 -224 30 -348 -78
-115 -102 -194 -101 -338 1 -123 18 -200 84 -385 22 -61 40 -125 40 -141 0
-38 -21 -78 -74 -143 -133 -164 -138 -396 -11 -601 82 -135 79 -123 80 -305 1
-155 2 -168 26 -220 40 -85 99 -134 306 -254 197 -115 333 -202 333 -214 0 -4
-48 -24 -108 -46 -170 -61 -204 -80 -274 -154 -161 -172 -188 -344 -90 -567
26 -59 39 -108 49 -184 16 -126 50 -278 68 -306 7 -11 69 -63 138 -115 69 -52
126 -98 126 -101 1 -3 -45 -9 -101 -12 -71 -3 -117 -11 -148 -25 -91 -39 -139
-115 -140 -218 0 -117 33 -169 188 -298 142 -118 147 -127 85 -152 -81 -33
-123 -94 -123 -177 0 -74 23 -135 81 -214 55 -76 60 -107 24 -142 -32 -30 -38
-56 -33 -134 4 -70 27 -120 88 -198 59 -74 67 -111 46 -208 -34 -157 16 -274
160 -377 l29 -21 -18 -49 c-23 -65 -22 -131 3 -174 46 -79 72 -142 85 -212 8
-40 20 -97 25 -125 7 -33 28 -77 55 -117 52 -76 81 -156 90 -251 9 -101 31
-168 85 -270 27 -49 60 -130 75 -180 14 -49 44 -138 65 -196 57 -156 70 -215
80 -365 6 -75 15 -157 22 -182 16 -68 59 -153 116 -230 65 -89 94 -141 132
-237 38 -97 58 -130 130 -220 31 -38 93 -122 138 -185 45 -63 133 -172 196
-241 125 -140 159 -189 177 -264 22 -91 67 -161 127 -199 57 -35 164 -67 256
-75 78 -7 246 -57 246 -72 0 -10 -46 -26 -155 -55 -183 -48 -269 -64 -415 -74
-329 -24 -346 -26 -590 -91 -39 -10 -169 -5 -430 17 -225 19 -413 48 -850 129
-304 56 -565 96 -620 95 -9 -1 5 -19 33 -44 44 -40 79 -106 56 -106 -6 0 -52
20 -102 45 -121 60 -223 79 -372 72 -115 -6 -282 -46 -348 -84 -46 -27 -69
-77 -64 -138 4 -46 9 -54 62 -102 67 -61 77 -57 -120 -58 -184 0 -242 -25
-286 -120 -38 -83 -18 -174 54 -244 l35 -33 -39 -42 c-64 -65 -100 -127 -97
-161 2 -24 12 -35 50 -55 62 -34 61 -32 48 -80 -15 -56 1 -100 50 -143 56 -48
258 -158 370 -201 135 -52 143 -58 155 -106 13 -52 16 -54 230 -116 151 -43
166 -49 133 -55 -20 -3 -44 -11 -52 -18 -14 -11 -14 -17 -1 -40 10 -20 44 -42
133 -84 134 -63 242 -97 382 -121 216 -35 337 -40 1035 -42 851 -2 757 2 745
-30 -24 -61 -1 -110 61 -129 11 -4 27 -24 35 -46 17 -41 44 -65 164 -148 l74
-52 1 -57 0 -56 57 -40 57 -39 -25 -24 c-15 -13 -25 -26 -23 -27 2 -2 49 -16
104 -31 55 -15 106 -35 113 -44 24 -29 7 -89 -48 -168 -28 -40 -63 -99 -78
-131 -26 -54 -27 -64 -27 -217 0 -134 4 -176 24 -258 23 -97 23 -99 6 -185 -9
-48 -24 -98 -32 -112 -43 -69 -105 -113 -178 -125 -70 -12 -75 -15 -75 -44 0
-48 64 -91 135 -91 19 0 70 14 114 32 45 17 83 29 85 27 11 -11 -16 -157 -38
-204 -38 -83 -80 -115 -256 -195 -88 -40 -160 -76 -160 -80 0 -9 41 -45 67
-59 30 -15 145 -13 228 4 145 31 247 98 358 238 21 26 59 58 87 72 122 62 240
295 240 476 0 28 -7 97 -16 153 l-17 101 42 256 c22 141 41 265 41 276 0 24
135 172 195 213 82 57 251 139 355 174 139 46 314 81 540 106 348 38 592 89
843 177 240 83 377 157 557 298 267 211 427 272 1049 400 535 110 828 208
1361 453 96 44 221 96 277 116 196 68 521 129 848 160 302 29 402 30 650 7
453 -43 604 -78 774 -181 60 -36 73 -40 92 -30 19 11 21 18 16 62 -7 57 -31
102 -67 129 -14 11 -117 58 -230 105 -113 47 -207 88 -210 91 -3 3 95 3 217
-1 238 -7 307 -19 373 -66 46 -33 60 -74 60 -183 0 -52 5 -108 11 -126 24 -68
116 -25 188 87 52 82 71 158 71 279 0 97 -4 118 -34 207 -73 210 -187 324
-406 404 -82 30 -141 62 -270 147 -313 206 -452 259 -911 344 -240 45 -361 79
-524 144 -236 95 -542 268 -587 332 -27 38 8 143 121 360 186 359 396 655 742
1045 251 283 294 334 340 401 58 86 113 208 140 314 21 81 24 112 24 305 -1
225 -5 273 -61 694 -39 296 -49 444 -64 921 -18 591 -36 796 -90 990 -10 39
-64 232 -119 430 -55 198 -118 430 -141 515 -54 205 -84 236 -124 127 -16 -42
-136 -721 -136 -766 0 -60 -19 8 -60 209 -24 120 -45 296 -95 800 -36 361 -57
516 -74 533 -53 53 -243 -215 -381 -538 -53 -125 -65 -144 -77 -131 -5 4 -11
121 -14 259 -9 325 -27 397 -103 397 -83 0 -196 -142 -322 -405 -141 -296
-160 -386 -130 -630 27 -220 56 -590 63 -790 l6 -190 -20 25 c-33 41 -55 90
-198 450 -212 533 -285 674 -449 865 -43 50 -81 91 -85 93 -13 4 -90 -113
-126 -191 -47 -103 -67 -201 -73 -360 -8 -239 19 -370 137 -656 81 -195 114
-297 137 -420 22 -123 7 -172 -39 -123 -65 68 -281 373 -359 507 -141 242
-221 354 -373 525 -139 157 -277 278 -386 339 -65 36 -104 40 -119 11 -15 -28
24 -249 56 -320 14 -30 48 -118 75 -195 113 -316 344 -887 420 -1037 11 -21
16 -38 12 -38 -12 0 -216 141 -288 200 -114 93 -219 213 -273 310 -57 103
-179 404 -311 767 -206 567 -228 627 -306 818 -141 348 -399 884 -739 1540
-206 396 -290 596 -375 891 -139 480 -182 896 -231 2244 -20 529 -41 1027 -59
1335 -7 120 -13 161 -31 202 -40 95 -79 106 -117 37 -27 -48 -34 -83 -67 -334
-47 -349 -81 -825 -91 -1265 -3 -143 -9 -271 -11 -285 -6 -24 -6 -24 -20 10
-28 66 -175 565 -194 660 -36 178 -65 547 -110 1395 -20 386 -38 535 -63 535
-87 0 -193 -294 -266 -735 -54 -321 -78 -599 -97 -1080 -3 -93 -9 -199 -13
-235 l-6 -65 -52 260 c-69 343 -79 416 -98 700 -8 132 -22 341 -30 465 -8 124
-24 383 -35 577 -15 260 -25 368 -38 410 -35 113 -79 77 -197 -162 -117 -238
-193 -472 -231 -711 -21 -134 -33 -503 -34 -1013 0 -265 -4 -421 -9 -415 -21
20 -73 240 -121 503 -123 685 -157 936 -195 1431 -21 280 -33 358 -58 405 -18
32 -29 41 -53 43 -26 3 -37 -3 -61 -32z"/>
</g>
</svg>
