<svg xmlns="http://www.w3.org/2000/svg" enable-background="new 0 0 2496 1541" version="1.1" xml:space="preserve" width="2496" height="1541"><rect id="backgroundrect" width="100%" height="100%" x="0" y="0" fill="none" stroke="none"/>
	
	
	
	
	
	
	
	
	
	
	
	
	
	
	
	
	
	
	
	
	
	
	
	
	
<g class="currentLayer" style=""><title>Layer 1</title><path d="m1697.900002861023,46.466 c3.298,-1.326 7.072,-2.6430000000000002 7.1370000000000005,-1.7520000000000002 c0.2870000000000003,3.941 -0.999,8.305 -1.5910000000000002,12.218 c-1.923,12.712 -2.35,25.282 -10.12,36.164 c-3.218,4.507 -7.277,8.404 -11.884,11.473 c-4.84,3.225 -9.353,4.93 -15.066,5.966 c-4.003,0.7260000000000006 -8.246,1.794 -10.954,4.83 c-1.042,1.1680000000000001 -1.8050000000000002,2.5780000000000003 -2.952,3.646 c-2.6310000000000002,2.4450000000000003 -5.793,1.228 -4.098,-2.55 c0.46,-1.025 1.1400000000000001,-1.931 1.738,-2.882 c4.47,-7.109 2.689,-15.522 2.918,-23.455 c0.524,-5.15 3.363,-9.154 6.067,-13.455 c5.449,-8.665000000000001 11.563,-15.841 20.375,-21.235 c4.339,-2.656 8.935,-4.857 13.587,-6.9030000000000005 c0.233,-0.10300000000000002 2.408,-1.086 4.843,-2.065 z" fill="#8BC43F" id="svg_1" class=""/><path d="m1762.000002861023,91.974 c3.3,-1.08 7,-0.4300000000000003 10.02,1.2 c2.6100000000000003,1.9500000000000002 4.03,5.02 5.61,7.79 c5.48,0.56 8.77,-5.92 14.27,-5.13 c3.39,1.49 5.83,4.41 8.78,6.57 l-0.620000000000004,0.6500000000000046 c-1.9,2.1 -4.54,4.14 -4.38,7.27 c0.23,7.2 -5.57,13.1 -11.58,16.18 c-5.01,2.42 -10.56,3.66 -16.12,3.25 c-4.51,-0.3400000000000026 -8.82,1.1 -13.03,2.45 c-4.12,1.12 -7.05,4.44 -10.85,6.2 c-1.2,-1.33 -2.39,-2.6500000000000004 -3.55,-3.98 c4.61,-3.66 9.67,-6.72 14.23,-10.44 c3.14,-2.77 7.25,-6.22 5.67,-10.94 c-6.86,-1.36 -12.96,-6.11 -16.21,-12.22 c5.95,-0.7300000000000006 12,0.2900000000000003 17.94,-0.55 c2.72,-2.07 0.310000000000002,-5.7 -0.18000000000000024,-8.3 z" fill="#050305" id="svg_2" class=""/><path d="m1646.200002861023,120.52 c1,0.1600000000000011 2.01,0.380000000000002 3.03,0.6500000000000046 c-1.51,5.6 -5.68,10.12 -6.51,15.97 c-1.26,4.47 -2.79,8.89 -3.49,13.49 c-0.6800000000000052,5.33 -3.5,10.03 -4.47,15.26 c-0.6800000000000052,5.98 -1.6900000000000008,11.9 -3.8,17.55 c-1.6300000000000003,2.19 -3.5300000000000002,4.17 -5.57,5.95 c-2.2800000000000002,0.7300000000000006 -4.78,1.04 -6.69,2.55 c-1.35,1.3 -1.45,3.3200000000000003 -2.05,4.99 l0.9,0.010000000000000073 c7.14,0.6000000000000006 14.32,0.030000000000000224 21.48,0.28 c3.73,0.12000000000000002 7.15,2.09 10.92,1.94 c5.6,-0.07 11.22,-0.32000000000000217 16.78,-1.1 c8.43,0.440000000000002 16.14,-5.36 24.58,-3.02 c-0.18000000000000024,0.740000000000004 -0.54,2.22 -0.7200000000000006,2.9699999999999998 c-1.1400000000000001,0.010000000000000073 -2.26,0.020000000000000143 -3.35,0.030000000000000224 c-1.27,-0.15000000000000024 -2.49,-0.310000000000002 -3.71,-0.45 c-1.02,1.51 -2.02,3.02 -3,4.53 c-3.07,-0.3900000000000023 -6.39,-2.7800000000000002 -9.35,-1.12 c-0.3000000000000003,0.3000000000000003 -0.8900000000000045,0.9 -1.19,1.21 c-2.01,-0.8500000000000006 -4.14,-0.21000000000000021 -6.02,0.53 c-2.31,-0.04000000000000011 -4.59,-0.08000000000000022 -6.86,-0.010000000000000073 c-4.74,0.09000000000000079 -9.34,1.48 -14.07,1.58 c-12.35,0.4100000000000003 -24.75,-1.13 -37.05,0 c-8.28,2.68 -16.13,6.75 -23.41,11.52 c-3.8600000000000003,2.49 -8.46,3.39 -12.46,5.6 c-1.94,1.07 -3.98,2.01 -6.18,2.37 l-0.79,0.15000000000000024 c-9.25,0.3300000000000023 -18.25,3.5300000000000002 -25.94,8.6 c-2.88,2.05 -4.85,5.12 -7.82,7.05 c-2.9699999999999998,1.98 -6.6,3.25 -8.57,6.41 c-2.7600000000000002,3.35 -3.7800000000000002,8.31 -8.04,10.19 c-3.79,1.8 -5.34,5.9 -7.54,9.19 c-2.3200000000000003,3.91 -5.46,7.23 -8.37,10.7 c-4.19,4.91 -6.48,11.26 -11.41,15.55 c-9.05,7.58 -20.29,11.69 -31.07,16.09 c-5.65,3.18 -12.13,4.23 -17.98,6.8900000000000015 c-9.03,3.75 -18.75,6.3100000000000005 -26.66,12.3 c-4.92,2.94 -8.71,7.26 -12.64,11.35 c-9.69,9.06 -14.46,21.92 -23.31,31.69 c-3.41,3.48 -4.73,8.44 -8.2,11.82 c-4.79,3.09 -11.68,1.78 -15.7,6.33 c-5.15,5.52 -10.56,10.77 -15.870000000000001,16.12 c-5.93,6.44 -13.19,11.43 -19,17.99 c-6.19,6.8100000000000005 -14.27,12.24 -18.14,20.85 c-2.7,4.8900000000000015 -5.3100000000000005,9.99 -6.06,15.6 c-0.5,3.22 0.13,6.76 -1.6400000000000001,9.67 c-2.81,4.68 -7.97,7.43 -10.56,12.27 c-2.37,4.57 -4.55,9.29 -5.9,14.27 c-2.35,8.27 -6.52,15.97 -8.18,24.43 c-0.880000000000004,4.29 2.4,7.55 5.85,9.41 c3.19,1.58 3.81,5.3 4.76,8.38 c1.3,5.58 6.41,9.45 11.59,11.26 c4.32,1.7000000000000002 9.08,1.2 13.52,2.45 c4.82,1.49 10.01,0.54 14.84,2.09 c3.8600000000000003,1.1600000000000001 7.86,1.73 11.89,1.9300000000000002 c3.36,0.12000000000000002 6.5,1.6400000000000001 9.86,1.77 c3.79,-0.5800000000000006 7.48,-1.73 11.24,-2.56 c3.62,-0.7300000000000006 5.95,-3.8200000000000003 8.63,-6.08 c5.76,-4.91 11.34,-10.46 14.39,-17.51 c1.47,-3.37 3.71,-6.35 5.09,-9.76 c1.29,-5.69 -0.2900000000000003,-11.61 0.78,-17.33 c1.12,-4.43 4.34,-7.98 5.43,-12.44 c1.22,-4.95 4.5,-9.39 4.28,-14.66 c0.020000000000000143,-4.38 0.09000000000000079,-8.76 -0.010000000000000073,-13.13 c-0.07,-3.93 -2.07,-7.5 -2.17,-11.43 c3.5700000000000003,-0.1 5.92,2.88 7.19,5.87 c1.75,4.11 2.35,8.65 4.42,12.63 c2.21,3.81 7.34,4.13 11.2,3.15 c7.25,-2.2 12,-8.51 17.32,-13.49 c6.22,-5.92 9.77,-13.95 11.86,-22.15 c3.6500000000000004,-5.51 10.34,-7.77 15.49,-11.58 c2.84,-2.41 3.5,-6.36 5.67,-9.28 c2.96,-2.1 6.67,-3.05 9.32,-5.63 c4.02,-3.72 7.3100000000000005,-8.44 12.5,-10.66 c4.38,-1.9 8.35,-5.57 13.43,-5.09 c4.38,0.06000000000000038 8.76,-0.05000000000000032 13.15,-0.23 c3.84,-0.27 7.2,1.9500000000000002 10.88,2.68 c7.15,1.52 13.73,5 20.98,6.16 c5.28,1.04 10.69,0.8300000000000006 16.06,0.860000000000004 c5.86,0.010000000000000073 11.8,-0.030000000000000224 17.53,-1.49 c2.31,-0.620000000000004 3.84,-2.62 5.55,-4.17 c3.15,-3.25 6.85,-5.94 9.83,-9.38 c1.61,-1.35 3.22,-2.71 4.8100000000000005,-4.11 c1.92,0.78 4.3100000000000005,-0.4300000000000003 4.28,-2.6500000000000004 l0.6400000000000045,-0.2400000000000002 c2.5,-0.8300000000000006 4.97,-2.15 7.71,-2.02 c-3.21,3.14 -7.35,5.15 -10.3,8.57 c-1.62,1.26 -3.2,2.58 -4.77,3.88 c-2.84,1.11 -5.53,2.55 -8.04,4.24 c0.14,1.3 0.26,2.6 0.4100000000000003,3.9 c4.16,0.440000000000002 8.37,0.52 12.53,-0.12000000000000002 l0.750000000000004,-0.030000000000000224 c1.62,0.09000000000000079 3.33,-0.6900000000000056 4.06,-2.23 c0.660000000000005,-0.06000000000000038 1.99,-0.17 2.6500000000000004,-0.22000000000000094 c7.2,-1.13 15.13,-2.35 20.43,-7.88 c3.73,-1.92 7.7,-3.42 11.88,-4.04 c0.06000000000000038,0.54 0.19000000000000106,1.6 0.25,2.14 c-2.66,2.75 -6.39,3.96 -9.96,4.99 c0.17,2.2800000000000002 0.8200000000000006,4.48 1.6400000000000001,6.62 c-3.23,0.97 -6.61,0.860000000000004 -9.93,0.740000000000004 c-4.43,-0.26 -8.55,1.7400000000000002 -12.92,1.94 c-3.49,0.18000000000000024 -6.95,0.5800000000000006 -10.27,1.6400000000000001 c-4.94,1.61 -10.39,-0.32000000000000217 -15.18,1.85 c-4.13,1.71 -5.8100000000000005,6.15 -8.6,9.3 c-5.26,6.86 -14.71,8.870000000000001 -19.16,16.55 c-6.48,-3.43 -12.34,-8.85 -20.07,-9.13 c-0.3600000000000003,1.9100000000000001 -0.7600000000000044,3.8200000000000003 -1.19,5.72 c-3.45,-2.72 -5.95,-6.46 -9.51,-9.02 c-4.98,-1.6800000000000006 -11.24,1.31 -15.53,-2.56 c-3.46,-3.87 -3.26,-9.67 -6.43,-13.72 c-1.35,-0.51 -2.75,0.04000000000000011 -4.03,0.3700000000000018 c-4.77,1.46 -9.71,2.47 -14.14,4.82 c-5.04,2.38 -9.16,6.17 -13.63,9.4 c-3.66,2.6900000000000004 -5.66,6.91 -8.76,10.13 c-5.08,5.49 -8.83,12 -12.45,18.5 c-2.37,4.25 -3.8200000000000003,9.16 -7.53,12.52 c-6.47,7.03 -14.04,12.89 -21.81,18.38 c-3.49,2.52 -7.82,3 -11.81,4.19 c-1.97,1.33 -2.93,3.64 -3.98,5.67 c-2.41,5.4 -4.73,11.13 -4.26,17.17 c0.4900000000000003,7.42 -3.46,14.01 -5.5600000000000005,20.89 c-2.24,5.8900000000000015 -3.19,12.75 -8.06,17.22 c-5.54,6.01 -13.63,8.81 -19.13,14.85 c-3.7800000000000002,3.63 -3.7600000000000002,10.49 0.030000000000000224,14.11 c2.24,2.38 4.51,4.83 7.3,6.6 c3.81,2.33 8.45,1.9 12.73,2 c7.46,-0.13 15.05,0.5800000000000006 22.37,-1.28 c5.26,-1.29 10.97,0.13 16.01,-2.16 c7.78,-3.83 13.75,-10.38 21.26,-14.64 c4.55,-2.67 9.27,-5.12 14.31,-6.77 c6.08,-1.8800000000000003 11.37,-6.3100000000000005 18,-6.23 c6.15,-0.660000000000005 11.93,1.86 17.56,3.95 c4.48,1.71 8.51,5.01 13.49,5.1 c5.5,0.25 11.14,0.4900000000000003 16.47,-1.17 c4.51,-1.33 9.41,-0.4200000000000003 13.85,-2.14 c3.79,-1.3800000000000001 7.66,-2.5 11.63,-3.31 l-0.19000000000000106,0.78 c-2.24,2.98 -5.8900000000000015,5.4 -6.32,9.37 c0.17,3.45 3.47,5.53 5.49,7.99 c-0.010000000000000073,0.4200000000000003 -0.04000000000000011,1.25 -0.06000000000000038,1.6700000000000008 c-0.6800000000000052,0.09000000000000079 -2.05,0.27 -2.74,0.3600000000000003 c-4.49,-3.93 -8.76,-9.66 -15.3,-9.68 c-4.17,-0.2900000000000003 -7.87,2.02 -11.92,2.5 c-5.05,0.620000000000004 -10.19,0.620000000000004 -15.13,1.92 c-2.6900000000000004,0.8200000000000006 -4.78,2.7800000000000002 -6.97,4.41 c-4.09,-2.9699999999999998 -4.17,-8.84 -8.12,-11.86 c-4.5600000000000005,-2.34 -9.56,0.4 -14.04,1.61 c-6.3100000000000005,1.58 -11.4,5.8100000000000005 -17.24,8.45 c-6.76,3.21 -13.01,7.58 -20.23,9.74 c-13.19,5.23 -27.28,8.78 -39.11,16.91 c-1.6400000000000001,1.01 -3.3200000000000003,1.9500000000000002 -4.99,2.87 c-4.25,-2.62 -8.620000000000001,-6.49 -13.96,-5.63 c-3.64,0.23 -7.37,1.78 -10.97,0.7200000000000006 c-4.29,-2.27 -7.05,-6.61 -11.41,-8.79 c-4.85,-2.46 -9.38,-5.6 -14.55,-7.35 c-5.71,-2.23 -12,-1.21 -17.83,-2.85 c-7.8,-1.31 -14.69,-5.48 -22.46,-6.88 c-11.01,-3.33 -22.44,2.96 -33.39,-0.610000000000004 c-5.69,-2.73 -9.21,-8.29 -13.84,-12.36 c-0.99,-0.7600000000000044 -1.97,-2.01 -3.34,-1.62 c-7.43,1.4 -12.8,7.74 -20.27,8.97 c-2.59,0.46 -5.43,1.11 -6.94,3.48 c-3.73,5.06 -6.2,10.92 -10.12,15.86 c-6.75,8.66 -12.03,18.39 -19.24,26.7 c-2.3,2.81 -4.2,5.91 -6.35,8.84 c0.380000000000002,0.08000000000000022 1.13,0.2400000000000002 1.5,0.32000000000000217 c0.6500000000000046,1.06 1.29,2.15 1.92,3.25 c-1.8900000000000001,0.46 -3.77,0.860000000000004 -5.62,1.42 c-6.76,2.33 -9.47,9.75 -14.23,14.5 c-4.68,4.41 -7.51,10.38 -12.44,14.55 c-5.48,4.63 -8.69,11.23 -13.97,16.04 c-3.8600000000000003,4.09 -8.58,7.51 -11.34,12.53 c-4.11,7.9 -12.32,12.44 -17.24,19.73 c-4.47,7.08 -11.69,11.74 -16.71,18.37 c-3.6900000000000004,4.91 -9.03,8.43 -11.98,13.92 c-3.94,6.9 -10.45,11.81 -14.82,18.38 c-2.23,2.58 0.81,5.55 3.16,6.6400000000000015 c4.63,1.92 9.44,3.41 14.31,4.59 c7.29,1.79 15.03,-0.740000000000004 22.19,1.9 c5.49,1.98 11.54,-0.21000000000000021 16.97,2.02 c-0.3600000000000003,1.54 -0.6400000000000045,3.11 -0.870000000000004,4.69 c-4.61,0.23 -9.19,0.750000000000004 -13.73,1.51 c-8.04,1.36 -16.22,0.4200000000000003 -24.31,0.93 c-6.59,0.51 -13.28,2.77 -19.85,0.98 c-4.05,-1.06 -8.47,-2.13 -12.54,-0.7300000000000006 c-6.76,3.9699999999999998 -11.43,10.43 -16.83,15.93 c-1.47,1.46 -2.8600000000000003,3.3200000000000003 -2.43,5.53 c0.78,1.23 2.29,1.61 3.67,1.7600000000000002 c10.75,0.9400000000000006 21.47,2.2800000000000002 32.04,4.51 c7.01,2.18 14.13,4.08 20.98,6.77 c9.99,3.6900000000000004 20.32,7.62 28.27,14.95 c6.33,8.05 12.93,15.92 18.63,24.45 c3.16,5.52 9.32,9.59 15.82,9.32 c3.83,-0.04000000000000011 7.8100000000000005,0.3300000000000023 11.54,-0.79 c4.13,-3.34 5.3100000000000005,-9.43 10.3,-11.85 c1.6900000000000008,-0.8300000000000006 4.07,-2.07 5.63,-0.28 c4.42,3 2.74,8.77 3.27,13.27 c0.19000000000000106,3.81 3.6,6.28 6.68,7.92 c6.48,3.71 14.21,4.48 20.57,8.45 c3.64,2.29 7.37,4.55 10.41,7.65 c3.18,3.12 6.03,6.95 10.41,8.48 c3.42,1.21 6.92,2.26 10.26,3.7600000000000002 c-1.45,1.42 -2.7600000000000002,3.49 -5.02,3.55 c-8.47,0.56 -17.23,-2.06 -23.67,-7.66 c-8.37,-5.01 -17.13,-9.53 -26.49,-12.36 c-10.21,-2.92 -20.92,-2.19 -31.39,-1.79 c-0.09000000000000079,1.24 -0.15000000000000024,2.51 -0.18000000000000024,3.7800000000000002 c6.06,2.6500000000000004 10.24,7.98 15.620000000000001,11.65 c5.88,4.04 11.33,8.68 17.14,12.82 c7.44,4.75 13.01,11.72 19.33,17.77 c7.97,9.81 15.5,20.01 22.52,30.53 c4.18,6.67 9.55,12.5 13.91,19.03 c2.47,5.27 7.1,8.9 10.99,13.04 c2.7,2.89 6.08,5.37 7.5,9.23 c-2.6900000000000004,-0.630000000000004 -5.32,-1.53 -7.57,-3.13 c-5.3,-3.7 -10.9,-7.01 -15.74,-11.32 c-3.37,-3 -7.43,-5.15 -10.53,-8.46 c-4.09,-4.29 -8.73,-8.13 -11.93,-13.17 c-4.65,-6.95 -10.1,-13.31 -14.66,-20.31 c-4.83,-6.69 -9.21,-14.04 -16.41,-18.47 c-6.63,-5.82 -14,-10.66 -21.38,-15.46 c-8.73,-4.71 -16.93,-10.33 -24.65,-16.55 c-2.89,-2.05 -5.91,-5.65 -9.85,-3.99 c-3.68,2.36 -5.35,6.63 -8.17,9.82 c-5.48,5.96 -10.07,12.66 -14.6,19.36 c-1.9300000000000002,2.75 -2.59,6.08 -3.09,9.34 c-4.38,0.440000000000002 -8.82,-0.07 -13.16,0.6400000000000045 c-2.8,1.4300000000000002 -5.18,4.5600000000000005 -4.1,7.85 c2.07,4.57 5.43,8.45 9.01,11.93 c6.75,6.36 11.3,14.620000000000001 15.18,22.95 c2.5700000000000003,5.48 6.49,10.16 9.78,15.22 c5.55,8.02 13.77,13.46 21.25,19.47 c6.94,3.98 15.26,4.69 22.17,8.77 c7.37,3.6900000000000004 11.91,10.870000000000001 18.23,15.89 c7.29,5.43 14.63,10.86 22.48,15.46 c6.6,3.59 12.98,7.57 19.3,11.64 c7.55,3.29 14.97,6.97 22.92,9.26 c12.57,4.09 25.42,7.41 37.77,12.15 c6.06,3.7 13.29,7.34 15.67,14.58 c2.25,6.62 9.58,8.41 14.71,12.13 c10.45,5.97 20.27,12.95 30.32,19.56 c4.86,3.06 8.66,7.42 12.59,11.54 c2.92,3.15 6.76,5.21 9.99,8.01 c4.26,3.7600000000000002 8.73,7.5 13.99,9.8 c5.19,1.94 10.58,3.31 15.78,5.27 c4.58,1.85 9.59,1.4100000000000001 14.42,1.4300000000000002 c7.05,-0.07 14.64,0.92 20.93,-3.05 v-2.48 l-0.09000000000000079,-0.8200000000000006 c-2.67,-15.55 -0.3000000000000003,-31.39 -1.53,-47.03 c-0.521,-6.623 -3.593,-13.714 -4.462,-20.551 c-0.925,-7.273 -0.7210000000000006,-14.33 1.027,-21.407 c3.432,-13.902 8.678,-26.746 16.705,-38.672 c3.39,-5.15 8.21,-9.4 10.68,-15.14 c1.17,-6.68 -0.4900000000000003,-13.57 0.880000000000004,-20.23 c1.09,-5.14 6.48,-8.36 6.58,-13.84 c-3.38,-0.3600000000000003 -6.69,0.3700000000000018 -9.79,1.6600000000000001 c-1.81,-3.18 -3.79,-6.24 -5.7,-9.34 c4.01,-0.750000000000004 8.12,-0.8400000000000006 12.19,-1.35 c0.310000000000002,-5.22 -0.32000000000000217,-10.58 1.33,-15.63 c0.93,-2.95 1.23,-6.3100000000000005 -0.5900000000000006,-8.99 c-4.41,-7.58 -11.3,-14.81 -10.5,-24.24 c9.02,0.8200000000000006 16.16,6.71 23.71,11.05 c1.92,1.1600000000000001 4.03,2.66 6.42,1.8900000000000001 c10.17,-2.7600000000000002 20.81,-0.3500000000000003 31.14,-1.7200000000000002 c1.99,-0.21000000000000021 3.58,-1.54 5.07,-2.7800000000000002 c4.88,-4.36 10.27,-8.19 16.16,-11.09 c0.3600000000000003,7.66 0.79,15.49 -1.1,23 c-0.8900000000000045,3.77 -2.37,7.68 -1.27,11.59 c1.24,4.55 2.58,9.09 3.11,13.8 c3.3200000000000003,0.9 7.1,1 9.8,3.43 c-3.33,2.36 -6.7,4.6400000000000015 -10.07,6.93 c-2.21,12.07 4.91,23.33 3.74,35.37 c-0.537,5.233 1.499,11.071 1.706,16.42 c0.2960000000000003,7.644 0.44400000000000206,17.09 -2.026,24.39 c-0.99,4.12 -1.75,8.93 0.4300000000000003,12.8 c6.91,9.86 10.01,21.84 11.58,33.62 c2.1,7.71 0.8900000000000045,15.71 1.34,23.58 c7.68,0.14 12.85,-6.07 19.23,-9.26 c7.26,-3.6100000000000003 13.93,-9.15 22.31,-9.81 c5.82,-0.3400000000000026 11.68,0.25 17.51,-0.3500000000000003 c0.3300000000000023,-4.16 -0.07,-8.32 -0.6500000000000046,-12.43 c-0.54,-6.99 -0.07,-14 -0.19000000000000106,-20.99 c0.12000000000000002,-5.53 -0.620000000000004,-11.16 0.7000000000000006,-16.6 c1.8850000000000002,-7.769 3.5,-15.641 6.259,-23.163 c1.455,-3.966 3.676,-7.466 5.341,-11.291 c1.703,-3.912 0.459,-8.383000000000001 -0.4900000000000003,-12.387 c-1.1,-4.57 -0.630000000000004,-9.3 -1.23,-13.93 c-0.8,-5.86 -0.6400000000000045,-11.78 -0.5900000000000006,-17.67 c-0.030000000000000224,-4.4 2.02,-8.49 1.98,-12.89 c-0.05000000000000032,-7.02 0.56,-14.07 2.39,-20.87 c0.880000000000004,-3.12 0.7600000000000044,-6.39 0.51,-9.58 c-3.9,-2.13 -6.73,-5.65 -8.51,-9.66 c3.03,-0.3300000000000023 6.06,-0.8400000000000006 9,-1.7000000000000002 c0.7100000000000006,-5.35 2.75,-10.41 3.47,-15.76 c0.860000000000004,-8.35 -3.41,-16.18 -2.98,-24.51 c0.010000000000000073,-2.87 0.18000000000000024,-5.73 0.4300000000000003,-8.57 c3.63,1.36 6.91,3.46 10.27,5.4 c3.85,2.31 6.43,6.28 10.47,8.35 c4.224,1.917 9.754,1.1280000000000001 14.25,1.096 l12.954,-0.09000000000000079 c1.62,-0.011000000000000105 3.294,-0.18000000000000024 4.864,0.16900000000000143 c1.346,0.2990000000000003 2.739,1.778 4.032,0.39400000000000235 c5.5,-4.6 12.03,-7.63 18.54,-10.51 c2.81,-1.06 5.82,-2.59 8.89,-1.53 c-1.06,4.18 -2.15,8.4 -4.18,12.23 c-2.34,4.78 -5.86,8.83 -8.69,13.3 c-1.54,1.9100000000000001 -0.3900000000000023,4.32 0.09000000000000079,6.41 c1.75,5.73 0.52,11.79 1.33,17.67 c3.7800000000000002,1.1 7.71,1.32 11.620000000000001,1.6800000000000006 c-1.79,2.81 -4.08,5.26 -6.52,7.52 c-2.12,-0.4200000000000003 -4.24,-0.81 -6.37,-1.06 c-0.010000000000000073,1.8900000000000001 -0.21000000000000021,3.89 0.5900000000000006,5.69 c2.25,5.88 5.33,11.56 6.23,17.86 c0.6500000000000046,5.47 -1.17,11.64 2.2800000000000002,16.47 c4.97,7.03 10.35,13.81 14.83,21.19 c4.32,8.98 7.58,18.47 10,28.14 c1.49,5.27 0.99,10.78 1.09,16.2 c0.4300000000000003,12.36 -6.9,23.61 -6.16,36 c0.12000000000000002,5.8900000000000015 -0.19000000000000106,11.79 0.26,17.68 c4.46,-0.17 8.5,-2.2 12.67,-3.58 c10.16,-3.02 20,-7.3100000000000005 30.59,-8.71 c12.57,-3.11 25.39,-5.05 37.84,-8.66 c6.36,-2.02 12.99,-2.94 19.44,-4.65 c6.38,-1.7200000000000002 12.5,1.79 18.86,1.99 c10.85,2.05 21.28,6.16 32.35,7.17 c10.99,2.58 21.17,-4.49 32.14,-3.77 c7.18,0.5 15.05,2.01 21.78,-1.31 c6.09,-4.93 12.37,-9.64 18.83,-14.11 c5.5600000000000005,-3.93 12.61,-4.24 18.97,-6.13 c6.86,-1.98 14.28,-1.97 20.76,-5.24 c6.15,-2.95 11.21,-7.59 16.32,-12.03 c3.52,2.3200000000000003 2.75,7.01 3.6500000000000004,10.63 c6.41,4.07 14.17,4.32 21.25,6.54 c6.22,1.97 12.84,1.9 19.11,3.72 c7.29,1.7200000000000002 13.95,-2.37 20.91,-3.68 c7.43,-1.46 14.77,-3.47 21.9,-6.05 c3.98,-1.4 7.61,-4.14 12,-4.1 c4.5600000000000005,-0.4300000000000003 9.81,1.13 13.69,-2.08 c5.84,-4.45 13.71,-4.37 19.73,-8.51 c2.48,-1.18 4.94,-2.45 7.51,-3.5 c0.26,0.620000000000004 0.78,1.85 1.04,2.46 c-2.42,2.48 -5.15,4.61 -7.69,6.95 c-6.73,4.11 -15.2,6.5 -19.34,13.77 c-2.67,5.11 -6.9,9.22 -11.72,12.31 c-5.09,2.92 -11.13,2.81 -16.65,4.35 c-4.53,1.17 -9.3,1.12 -13.79,-0.09000000000000079 c-5.15,-1.4300000000000002 -10.53,-0.6400000000000045 -15.77,-1.02 c-3.16,-0.1 -4.62,-4.17 -7.92,-3.73 c-7.69,0.07 -15.3,-1.07 -22.94,-1.61 c-7.82,-2.43 -16.05,-1.12 -24.08,-1.42 c-7.47,0.310000000000002 -15.1,-0.92 -22.4,1.1 c-5.38,1.34 -11.24,0.32000000000000217 -16.3,2.87 c-3.29,1.7600000000000002 -6.62,3.43 -10.04,4.8900000000000015 c-4.7,1.96 -8.34,5.61 -12.49,8.44 c-3.93,2.67 -6.66,6.8 -10.84,9.11 c-6.53,3.29 -13.37,7.09 -20.94,6.43 c-11.35,-0.18000000000000024 -22.72,0.53 -34.05,-0.12000000000000002 c-5.09,-0.79 -10.49,-1.4100000000000001 -14.83,-4.39 c-2.66,-1.8900000000000001 -6.1,-1.1600000000000001 -9.11,-1.61 c-5.07,-0.7200000000000006 -10.25,-0.5700000000000006 -15.2,-1.9300000000000002 c-7.88,-2.3200000000000003 -16.21,0.51 -23.06,4.45 c-4.18,2.58 -8.56,4.93 -13.36,6.09 c0.010000000000000073,0.4300000000000003 0.05000000000000032,1.31 0.06000000000000038,1.75 c2.6100000000000003,2.4 6.02,3.23 9.52,2.99 c8.43,-0.4100000000000003 15.58,5.54 23.98,5.12 c8.36,-0.07 16.8,-0.3500000000000003 25.09,1.02 c6.61,1.3900000000000001 13.03,4.21 19.93,3.83 c7.12,-0.28 14.45,0.8 21.39,-1.37 c5.11,-1.5 10.57,0.13 15.69,-1.4300000000000002 c6.45,-2.11 13.32,-1.05 19.99,-1.18 c7.1,0.610000000000004 14,2.7 21.01,3.99 c4.38,0.880000000000004 8.29,-1.6900000000000008 12.04,-3.54 c4.5600000000000005,4.98 8.58,10.56 14.14,14.54 c7.29,5.43 15.42,9.73 23.92,12.94 c7.14,1.96 14.31,4.67 21.85,4.2 c5.82,-0.3000000000000003 11.74,0.53 17.51,-0.55 c4.21,-1.6500000000000008 7.84,-4.47 11.97,-6.34 c0.3900000000000023,2.43 0.740000000000004,4.91 1.54,7.27 c0.5700000000000006,1.05 1.58,1.9300000000000002 2.89,1.9500000000000002 c3.47,-1.3 6.02,-4.17 9.23,-5.94 c0.870000000000004,0.04000000000000011 1.77,0.14 2.6900000000000004,0.3000000000000003 l-0.23,1.01 c-1.12,2.77 -2.93,5.29 -5.38,7.02 c-4.99,1.86 -9.48,4.87 -13.77,7.97 c-4.45,3.94 -9.73,9.53 -7.79,16.01 c3.11,7.82 7.86,14.84 11.76,22.26 c2.68,4.84 1.59,10.55 2.03,15.84 c7.09,3.95 14.32,8 22.4,9.46 c5.86,1.78 12.1,1.13 17.98,2.87 c5.57,1.49 11.39,0.030000000000000224 17.02,1.02 c2.8,0.5 5.02,2.4 7.09,4.26 c-4.06,1.92 -8.620000000000001,1.31 -12.94,1.35 c-10.94,-0.13 -21.87,-0.2400000000000002 -32.79,-0.010000000000000073 c-0.06000000000000038,6.33 4.43,11.38 8.78,15.48 c4.53,4.12 8.26,9.36 13.99,11.98 c5.97,3.55 13.23,2.92 19.88,2.41 c8.25,-1.86 15.88,-5.8900000000000015 24.15,-7.74 c8.77,-1.08 15.71,6.03 24.23,6.87 c-1.6600000000000001,1.97 -2.48,5.3 -5.04,6.17 c-7.94,-1.58 -16.65,-1.42 -23.81,2.75 c-4.21,2.58 -8.29,5.76 -10.73,10.13 c-0.99,1.9 0.92,3.47 2.51,4.17 c4.09,1.8900000000000001 8.63,2.62 13.1,3.16 c-0.06000000000000038,0.6900000000000056 -0.17,2.08 -0.23,2.77 c-2.9,0.15000000000000024 -5.74,0.5900000000000006 -8.57,1.12 c2.14,3.93 3.5300000000000002,9.04 8.49,10.24 c1.25,0.6900000000000056 2.51,1.42 3.79,2.17 c0.020000000000000143,0.5900000000000006 0.05000000000000032,1.77 0.06000000000000038,2.36 c-1.58,0.15000000000000024 -3.14,0.32000000000000217 -4.67,0.52 c1.53,4.62 3.11,9.41 2.3200000000000003,14.36 c-1.12,0.15000000000000024 -2.21,0.310000000000002 -3.27,0.4800000000000003 c-1.6700000000000008,-4.87 -2.1,-10.1 -4.16,-14.82 c-1.4100000000000001,-3.7 -4.6,-6.16 -7.37,-8.78 c-5.02,-4.62 -9.21,-10.31 -15.35,-13.56 c-3.44,-1.83 -7.9,-2.99 -11.44,-0.8500000000000006 c-1.86,0.92 -1.24,3.3200000000000003 -1.51,5.01 c-0.1,8.03 0.1,16.07 -0.07,24.1 c-0.19000000000000106,3.77 0.880000000000004,7.41 1.6,11.09 c1.01,7.44 1.6800000000000006,15.52 6.3,21.77 c2.34,3.27 3.5300000000000002,7.15 5.02,10.85 c2.63,6.93 6.84,13.09 10.59,19.45 c3.45,5.46 7,10.89 11,15.98 c4.03,5.33 9.71,9.36 12.68,15.5 c-1.3,0.3500000000000003 -2.58,0.7100000000000006 -3.83,1.07 c-3.03,-4.97 -7.66,-8.64 -11.23,-13.16 c-5.8900000000000015,-7.29 -10.84,-15.29 -15.61,-23.33 c-3.3200000000000003,-6.02 -8.43,-11.08 -9.98,-17.97 c-3.25,-10.24 -7.19,-20.28 -9.58,-30.77 c-2.2,-7.35 -3.5300000000000002,-14.93 -5.75,-22.27 c-4.69,-11.77 -8.42,-24.27 -16.57,-34.25 c-3.49,-4.48 -8.15,-7.87 -11.620000000000001,-12.34 c-3.59,-4.57 -3.79,-10.68 -6.37,-15.73 c-2.04,-3.38 -6.01,-4.66 -9.19,-6.62 c-6.97,-3.7600000000000002 -10.38,-12.06 -18.02,-14.8 c-11.61,-5.07 -24.51,-6.49 -35.77,-12.44 c-2.87,-1.79 -5.6400000000000015,-3.7800000000000002 -8.79,-5.02 c-7.97,-2.7800000000000002 -14.22,-8.68 -21.7,-12.42 c-7.3,-3.5 -13.37,-9.12 -20.96,-12.01 c-7.07,-2.7800000000000002 -13.52,-6.92 -20.74,-9.33 c-6.53,-2.38 -13.58,-4.37 -18.63,-9.43 c-4.18,-3.74 -7.4,-8.78 -12.67,-11.13 c-6.6400000000000015,-2.91 -13.14,-6.49 -20.43,-7.4 c-10.44,-2.99 -21.36,-1.6300000000000003 -32.04,-1.82 c-6.62,0.4 -13.620000000000001,-1.02 -19.87,1.7400000000000002 c-1.53,0.5700000000000006 -1.45,2.49 -1.61,3.83 c-0.3500000000000003,6.63 -0.010000000000000073,13.28 -0.11000000000000022,19.93 c0.05000000000000032,5.9 -0.54,11.92 0.98,17.71 c1.9100000000000001,9.92 4.14,20.31 10.32,28.56 c2.26,3.39 4.04,7.16 6.88,10.17 c2.19,2.47 4.96,4.43 6.86,7.17 c1.52,3.81 0.9,8.29 3.2,11.870000000000001 c3.89,6.26 9.91,10.84 15.88,15.01 c3.8200000000000003,2.55 3.36,8.22 7.25,10.68 c6.37,4.37 14.4,4.53 21.67,6.32 c2.71,0.7200000000000006 3.89,3.43 4.86,5.82 c-3.31,-0.5800000000000006 -6.55,-1.8800000000000003 -9.93,-1.6600000000000001 c-2.98,0.3900000000000023 -5.09,3.7600000000000002 -3.36,6.48 c3.43,6.79 7.85,13.2 13.53,18.33 c3.8,3.47 7.06,7.53 11.13,10.72 c5.07,3.38 10.5,6.34 16.39,8.05 c-2.63,3 -5.03,6.78 -3.23,10.89 c1.23,4.87 3.24,9.55 6.08,13.72 c1.57,5.74 2.5,11.7 4.95,17.18 c1.1,4.28 1.87,8.65 2.81,12.99 c1.59,7.62 0,15.38 -0.1,23.06 c-0.020000000000000143,4.39 -2.16,8.77 -0.52,13.11 c2.36,7.39 1.03,15.24 1.96,22.84 c-0.14,1.34 0.81,3.8600000000000003 -1.1600000000000001,4.24 c-1.5,0.7600000000000044 -3.51,-1.06 -3.48,-2.6100000000000003 c-0.15000000000000024,-5.88 0.55,-11.78 -0.1,-17.64 c-0.5,-4.03 -2.3200000000000003,-7.9 -1.92,-12.01 c0.26,-3.34 1.03,-6.6 1.19,-9.94 c0.23,-7.12 1.9100000000000001,-14.37 -0.26,-21.36 c-1.21,-3.63 -0.46,-8.51 -4.2,-10.72 c-3.08,-5.54 -3.07,-12.14 -5.21,-18.04 c-1.25,-3.91 -3.14,-7.65 -5.72,-10.83 c-2.09,-2.9699999999999998 -4.22,-5.92 -6.73,-8.53 c-3.47,-3.6100000000000003 -5.71,-8.21 -9.43,-11.57 c-4.4,-4.6400000000000015 -10.51,-7.72 -13.52,-13.56 c-2.26,-3.8200000000000003 -4.75,-8.77 -9.69,-9.24 c-0.23,0.660000000000005 -0.6900000000000056,1.97 -0.92,2.63 c-0.21000000000000021,0.54 -0.630000000000004,1.62 -0.8400000000000006,2.16 c-0.2900000000000003,0.52 -0.880000000000004,1.56 -1.17,2.08 c-2.7600000000000002,7.12 -3.96,14.97 -8.5,21.3 c-1.21,1.6500000000000008 -3.52,1.5 -5.25,2.17 c-0.45,-1.18 -0.870000000000004,-2.35 -1.27,-3.5 c1.01,-1.7600000000000002 2.02,-3.51 3.06,-5.25 c3.98,-4.35 5.73,-10.14 7.16,-15.72 c0.9,-4.6 0.78,-9.34 0.3300000000000023,-13.97 c-0.07,-1.7000000000000002 -1.44,-2.85 -2.41,-4.06 c-3.41,-3.6500000000000004 -5.77,-8.16 -9.56,-11.45 c-4.99,-4.43 -7.8100000000000005,-10.77 -13.08,-14.91 c-1.99,-1.9 -5.11,-1.8 -7.47,-0.8 c-1.34,2.2 -1.5,4.84 -1.99,7.33 c-2.59,0.3400000000000026 -5.25,0.740000000000004 -7.8,0.07 c-1.6700000000000008,-2.42 -1.61,-5.55 -2.38,-8.3 c-1.29,-7.1 -4.62,-13.57 -6.49,-20.5 c-3.15,-11.4 -7.18,-22.53 -11.24,-33.62 c-3.08,-11.870000000000001 -7.08,-23.61 -8.41,-35.85 c-0.15000000000000024,-3.34 -2.3,-5.98 -4,-8.66 c-2.37,-3.6100000000000003 -4.04,-7.7 -7.09,-10.8 c-5.34,-5.5600000000000005 -12.01,-9.97 -19.4,-12.24 c-3.84,-0.81 -7.71,-1.4300000000000002 -11.49,-2.44 c-3.96,-1.1400000000000001 -7.85,0.56 -11.67,1.34 c-9.98,0.740000000000004 -19.17,5.12 -28.9,7.12 c-5.12,1.36 -10.48,0.9400000000000006 -15.6,2.15 c-7.25,1.82 -14.75,0.610000000000004 -22.1,1.09 c0.3600000000000003,3.73 1.07,7.42 2.22,11 c10.692,33.285 6.027,72.771 -11.002,103.16 c-1.158,2.067 -2.358,4.111 -3.598,6.13 c-3.9,5.44 -6.9,11.6 -11.91,16.15 c-4.14,3.8600000000000003 -7.8,8.23 -12.14,11.870000000000001 c-4.885,4.097 -11.686,7.734 -17.951,8.994 c-5.8580000000000005,1.178 -11.682,-1.576 -17.585,-0.5670000000000006 c-6.159,1.053 -11.071,5.143 -16.864,7.233 c-4.72,1.33 -9.7,0.92 -14.53,0.7600000000000044 c-4.18,-0.4100000000000003 -8.47,-0.4100000000000003 -12.46,-1.77 c-31.613,-10.775 -54.809,-42.774 -66.229,-72.94 c-3.106,-8.203 -4.958,-16.787 -8.09,-24.97 c-0.4800000000000003,-1.81 -2.6,-2.05 -4.04,-2.68 c-4.19,-1.58 -8.7,-1.98 -13.14,-1.82 c-4.92,0.18000000000000024 -9.91,-0.4300000000000003 -14.77,0.4700000000000003 c-7.41,1.96 -15.1,2.5700000000000003 -22.5,4.55 c-6.5600000000000005,1.6 -12.96,4.11 -19.75,4.48 c-4.39,0.23 -8.44,2.08 -12.69,2.96 c-0.9500000000000006,5.26 0.4300000000000003,10.67 -0.7600000000000044,15.88 c-1.12,2.38 -3.42,5.43 -6.37,4.83 c-7.69,-4.84 -12.47,-12.85 -16.94,-20.51 c-3.6100000000000003,-6.51 -9.52,-11.33 -15.82,-15.07 c-6.35,-3.64 -12.22,-8.11 -18.98,-11 c-7.32,-3.24 -13.56,-8.25 -19.63,-13.34 c-5.18,-3.09 -8.78,-8.07 -13.83,-11.29 c-5.37,-3.55 -9.27,-8.76 -13.94,-13.09 c-3.49,-3.6 -8.03,-5.92 -11.51,-9.51 c-2.3,-2.34 -4.6,-4.71 -7.33,-6.54 c-5,-3.27 -8.75,-8.14 -14.11,-10.9 c-6.99,-3.87 -12.66,-9.89 -20.19,-12.79 c-7.5920000000000005,-2.924 -13.908,-8.836 -22.184,-10.049 c-5.075,-0.744000000000004 -10.823,-0.0010000000000000041 -15.959,0.004000000000000034 c-4.829,0.005000000000000037 -10.896,0.13 -15.306000000000001,-2.012 c-4.682,-2.274 -8.086,-7.282 -11.845,-10.769 c-3.964,-3.677 -7.791,-7.58 -11.556000000000001,-11.464 c-2.42,-2.64 -5.44,-4.57 -8.29,-6.66 c-13.33,-12.18 -28.4,-22.26 -42.23,-33.81 c-3.47,-3.62 -8.07,-5.86 -11.54,-9.45 c-7.28,-7.4 -14.65,-14.7 -21.99,-22.03 c-3.22,-3.18 -5.42,-7.19 -8.46,-10.51 c-4.62,-5.17 -7.48,-11.68 -12.46,-16.55 c-2.02,-1.9 -3.81,-4.35 -6.5,-5.25 c-3.84,-0.660000000000005 -7.75,-0.54 -11.61,-0.3700000000000018 c-6.78,0.2400000000000002 -12.68,4.01 -19.16,5.5 c-7.03,1.29 -14.47,0.630000000000004 -20.92,-2.55 c-7.07,-2.87 -15.34,-7.57 -22.82,-3.24 c-8.03,3.44 -11.03,12.28 -16.99,18.01 c-8.95,9.27 -21.19,14.06 -31.41,21.64 c-5.94,4.3 -12.94,7.42 -17.48,13.39 c-4.42,5.73 -8.98,12.29 -8.620000000000001,19.88 c-0.2900000000000003,5.6 1.6300000000000003,10.95 2.64,16.39 c1.36,6.58 4.76,12.8 4.33,19.68 c0.14,6.33 -4.24,11.65 -4.32,17.94 c-0.1600000000000011,2.63 0.51,5.21 1.15,7.75 c1.08,4.22 1.11,8.620000000000001 2.21,12.84 c1.17,5.6 3.68,10.81 4.74,16.45 c1.1400000000000001,6.39 3.79,12.38 5.29,18.68 c0.8900000000000045,3.8200000000000003 2.08,7.58 3.74,11.14 c2.62,5.42 3.96,11.44 7.52,16.39 c3.44,6.34 7.94,11.96 12.27,17.69 c4.34,5.38 10.41,8.870000000000001 15.74,13.14 c3.87,3.05 8.35,5.14 12.8,7.2 c5.62,2.6900000000000004 10.77,8.08 10.64,14.68 c0.04000000000000011,6.66 0.5900000000000006,13.38 2.19,19.85 c2.33,4.77 4.2,10.75 9.55,12.96 c5.96,2.5700000000000003 12.67,5.1 19.21,3.27 c4.02,-1.81 5.69,-6.21 8.39,-9.39 c4.16,-3.88 9.58,-7.34 15.54,-5.85 c0.8900000000000045,5.43 0.9500000000000006,11.33 4.01,16.11 c2.58,3.3200000000000003 5.71,6.52 9.79,7.93 c6.6400000000000015,2.47 13.59,3.98 20.52,5.43 c3.52,0.6800000000000052 6.96,2.13 9.53,4.71 c3.73,3.6500000000000004 7.73,7.12 10.63,11.52 c3.58,5.58 8.92,9.66 13.4,14.47 c7.38,7.28 14.61,14.73 22.02,21.98 c22.99,18.34 46.37,36.53 72.29,50.64 c3.26,1.7200000000000002 7.08,1.23 10.64,1.08 c4.8,-0.380000000000002 9.64,-0.4 14.46,-0.11000000000000022 c0.18000000000000024,2.84 0.1600000000000011,5.7 -0.14,8.55 c-6.75,2.38 -14.93,3.64 -19.35,9.86 c-1.75,2.16 0.97,4.24 2.2800000000000002,5.8 c1.8900000000000001,1.9500000000000002 4.12,3.94 3.59,6.98 c-1.46,0.3600000000000003 -2.89,0.740000000000004 -4.33,1.05 c-6.61,-7.15 -13.08,-14.64 -21.25,-20.07 c-7.37,-6.69 -15.88,-11.96 -23.34,-18.53 c-6.86,-4.4 -13.25,-9.43 -19.64,-14.46 c-6.93,-6.15 -15.14,-10.74 -21.73,-17.28 c-2.5300000000000002,-2.55 -5.65,-4.36 -8.41,-6.6 c-5.76,-4.86 -10.25,-11.15 -16.58,-15.34 c-4.39,-2.8600000000000003 -7.61,-7.12 -11.9,-10.1 c-8.54,-6.22 -17.08,-12.56 -26.52,-17.37 c-5.76,-3.11 -12.22,-4.45 -18.22,-6.95 c-3.89,-1.81 -8.3,-1.27 -12.34,-2.48 c-6.65,-1.9 -14.32,-2.12 -20.26,1.8900000000000001 c0.1,5.63 3.06,10.620000000000001 6.1,15.17 c3.79,5.65 6.32,12.01 8.91,18.28 c1.87,4.55 5.62,8.75 5.04,13.98 c-1.1400000000000001,3.03 -3.9699999999999998,4.88 -6.43,6.77 c-8.23,-10.6 -13.5,-23.26 -21.94,-33.72 c-3.6100000000000003,-3.62 -5.75,-8.3 -8.68,-12.42 c-6.5,-8.11 -12.54,-16.72 -16.82,-26.24 c-5.25,-8.76 -7.59,-18.77 -10.55,-28.44 c-1.23,-3.88 -1.81,-8.15 -4.41,-11.42 c-4.83,-5.94 -11.33,-10.13 -17.71,-14.22 c-8.03,-4.71 -14.24,-11.81 -20.59,-18.48 c-7.36,-7.95 -11.15,-18.2 -15.29,-28 c-5.23,-12.14 -7.86,-25.14 -11.12,-37.87 c-2.94,-7.24 -6.35,-14.29 -9.34,-21.51 c-1.98,-5.24 -6.79,-8.46 -10.43,-12.43 c-2.03,-1.8800000000000003 -3.8,-4.35 -6.53,-5.2 c-11.29,-1.81 -23.17,0.06000000000000038 -33.11,5.78 c-5.79,4.22 -12.41,7.33 -19.41,8.88 c-5.66,0.440000000000002 -11.59,0.8500000000000006 -16.99,-1.23 c-4.1,-1.45 -8.5,-1.28 -12.74,-1.9 c-5.77,-0.7300000000000006 -11.5,-1.97 -17.33,-1.97 c-4.51,0.14 -8.45,-2.62 -12.94,-2.59 c-4.72,-0.030000000000000224 -9.29,-1.5 -14,-1.52 c-4.38,-0.05000000000000032 -8.77,0.2 -13.14,-0.07 c-2.64,-0.860000000000004 -5.32,-1.8900000000000001 -8.14,-1.6900000000000008 c-9.89,0.32000000000000217 -19.82,-0.4300000000000003 -29.69,0.46 c-10.29,2.14 -20.74,3.46 -30.91,6.18 c-11.11,3 -22.42,5.1 -33.68,7.4 c-10.07,1.79 -19.54,-3.02 -29.48,-3.5700000000000003 c-5.08,-0.13 -9.84,-2.42 -14.95,-2.17 c-9.91,-0.53 -19.36,3.14 -28.27,7.02 c-7.25,3.5 -13.92,8.03 -20.94,11.96 c-13.363,8.633000000000001 -29.308,12.878 -44.809,16.386 c-10.515,2.38 -21.184,4.078 -31.919,5.074 c-5.564,0.517 -11.259,0.3540000000000003 -16.792,1.016 c-4.4350000000000005,0.531 -9.327,0.16700000000000134 -13.681000000000001,1.393 c-7.02,2.29 -14.41,0.04000000000000011 -21.6,0.3000000000000003 c1.17,5.71 5.61,9.66 9.72,13.41 c1.8900000000000001,1.85 4.83,1.6600000000000001 6.94,3.12 c2.83,3.81 3.04,8.78 4.71,13.12 c2.42,6.7 3.8600000000000003,13.69 5.46,20.62 c1.23,6.61 3.79,12.92 4.33,19.67 c-0.2,2.19 2.15,2.96 3.93,3.13 c7.35,0.8500000000000006 14.17,4.11 21.59,4.61 c19.5,5.28 39.48,8.81 58.75,14.93 c3.25,0.6700000000000051 6.52,1.31 9.68,2.39 c10.61,3.4 21.73,4.62 32.46,7.57 c13.35,2.27 26.42,6.27 39.95,7.23 c9.23,3.17 19.1,0.1 28.44,2.42 c3.25,0.77 6.59,0.8500000000000006 9.9,1.26 c2.56,0.3700000000000018 4.43,2.7600000000000002 7.11,2.7800000000000002 c3.19,0.2 6.4,0.17 9.61,0.3300000000000023 c-0.07,1.6800000000000006 -0.09000000000000079,3.37 -0.05000000000000032,5.07 c-4.13,1.5 -8.6,1.26 -12.83,2.3 c-7.84,3.08 -16.21,5.43 -24.71,5.04 c-7.34,-0.08000000000000022 -14.67,0.010000000000000073 -22,-0.07 c-3.47,0.030000000000000224 -7.14,-0.45 -10.33,1.26 c0.77,6.98 4.33,13.2 6.42,19.82 c2.09,6.5600000000000005 5.88,12.51 10.75,17.35 c1.59,1.77 3.83,-0.19000000000000106 5.62,-0.6500000000000046 c8.49,-4.07 17.24,-7.97 26.65,-9.3 c4.62,-0.3500000000000003 9.28,-0.23 13.92,-0.17 c3.9,-0.010000000000000073 7.45,1.75 11.13,2.8 c7.99,2.51 16.45,0.4 24.62,1.45 c6.69,1.19 13.28,6.14 14.29,13.19 c-12.43,1.9 -24.95,-0.6000000000000006 -37.39,0.860000000000004 c-10.55,2.11 -21.44,1.1400000000000001 -31.99,3.27 c-5.04,1.27 -10,2.79 -14.84,4.68 c0.5800000000000006,2.7 1.36,5.44 3.01,7.72 c3.36,4.3100000000000005 6.4,8.88 10.19,12.86 c9.36,12.620000000000001 20.18,24.13 28.5,37.52 c0.8400000000000006,1.81 2.48,3.99 1.21,6 c-1.86,1.27 -4.22,1.6700000000000008 -6.41,1.28 c-6.97,-4.99 -11.74,-12.34 -17.34,-18.73 c-4.78,-6.47 -10.74,-11.91 -16.17,-17.8 c-4.26,-7.79 -11.29,-13.39 -17.48,-19.55 c-1.6700000000000008,-2.03 -4.49,-2.4 -6.75,-1.21 c-8.73,4.42 -17,9.77 -24.63,15.91 c0.4800000000000003,3.21 0.98,6.45 2.14,9.52 c0.8,2.43 2.02,4.95 1.46,7.59 c-1.6,2.09 -5.11,3.22 -7.16,1.15 c-3.75,-3.35 -5.97,-7.99 -9.04,-11.91 c-2.96,-3.96 -5.67,-9.11 -10.95,-10.19 c-6.23,-1.34 -12.39,-3.02 -18.16,-5.77 c-7.26,-1.92 -13.2,-6.87 -20.49,-8.72 c-7.11,-3.72 -14.97,-5.49 -22.36,-8.53 c-8.51,-3.54 -17.61,-5.22 -26.52,-7.37 c-4.84,-0.52 -9.81,-0.750000000000004 -14.61,0.04000000000000011 c-3.5300000000000002,2.4 -8.19,4.03 -12.18,1.6400000000000001 c-3.08,-1.36 -3.2800000000000002,-4.97 -4.05,-7.79 c-0.5800000000000006,-2.77 -1.9500000000000002,-5.46 -1.4300000000000002,-8.35 c0.8400000000000006,-7 0.4700000000000003,-14.14 -1.29,-20.97 c-0.98,-3.59 0.010000000000000073,-7.38 -1,-10.95 c-1.06,-3.77 -1.1400000000000001,-7.68 -1.73,-11.5 c-1.84,-6.5 -1.45,-13.42 -4.21,-19.68 c-2.5,-0.92 -4.97,-1.99 -7.6,-2.46 c-4.55,-0.6900000000000056 -9.29,0.25 -13.71,-1.3 c-8.06,-2.58 -16.78,0.660000000000005 -24.78,-2.15 c-3.54,-1.26 -7.33,-0.9400000000000006 -10.99,-0.620000000000004 c-2.05,3.04 -4.62,5.75 -6.18,9.11 c-2.1,3.94 -3.44,8.33 -6.17,11.9 c-1.84,1.08 -4.29,0.11000000000000022 -6.34,0.22000000000000094 c-0.07,-0.56 -0.19000000000000106,-1.6900000000000008 -0.25,-2.25 c1.6400000000000001,-6.7 5.26,-12.75 6.38,-19.62 c-4.6,-0.25 -9.21,-0.010000000000000073 -13.81,-0.19000000000000106 c-2.7,0.020000000000000143 -4.8900000000000015,-1.6700000000000008 -6.87,-3.2800000000000002 c-5.79,-4.96 -12.13,-9.21 -18.15,-13.870000000000001 c-4.99,-3.9699999999999998 -10.99,-6.3100000000000005 -16.62,-9.17 c-5.79,-2.88 -12.44,-4.82 -18.9,-3.35 c-3.9699999999999998,2.26 -6.42,6.71 -10.91,8.19 c-3.05,1.3900000000000001 -7.47,1.02 -9.04,-2.3200000000000003 c-1.92,-5.21 -1.9500000000000002,-10.94 -3.89,-16.14 c-0.9490000000000006,-2.545 -8.483,-7.26 -11.189,-8.389 c-6.107,-2.55 -13.705,-3.327 -20.179,-4.621 c-13.715,-2.741 -27.572,-4.768 -41.498,-6.07 c-12.37,-1.1560000000000001 -24.814,-1.743 -37.07,-3.778 c-14.793,-2.456 -27.029,-8.008 -40.104,-15.002 c-9.38,-6.82 -20.55,-10.73 -31.78,-13.18 c-8.66,-1.9300000000000002 -17.17,-4.44 -25.83,-6.33 c-9.558,-0.8840000000000043 -19.423000000000002,-3.446 -29.013,-4.927 c-10.913,-1.685 -21.825,-3.37 -32.738,-5.055 c-22.591,-3.465 -45.429,-8.291 -68.179,-10.159 c-13.620000000000001,-1.4300000000000002 -26.61,-6.03 -39.99,-8.68 v-127.79 c3.44,0.3900000000000023 6.92,1.04 10,2.71 c7.23,3.8600000000000003 14.870000000000001,6.9 22.06,10.84 c5.47,2.11 10.79,4.53 16.07,7.08 c6.27,2.59 11.89,6.61 18.41,8.64 c10.816,3.368 20.926,10.17 31.149,14.919 c11,5.11 22.885,8.073 34.821,10 c15.881,2.564 31.993,3.359 47.946,5.422 c26.173,3.3850000000000002 51.789,10.084 77.961,13.48 c13.012,1.6880000000000006 26.177,2.553 39.287,1.665 c12.443,-0.8430000000000006 24.547,-0.3510000000000003 37.096,-0.18900000000000106 c5.522,0.07100000000000002 11.045,0.12300000000000012 16.567,0.12300000000000012 c27.192,-0.0010000000000000041 54.34,-0.08000000000000022 81.504,-0.3330000000000025 c53.908,-0.502 109.55,-1.221 162.65,-10.53 c3.795,-0.6650000000000051 7.582,-1.379 11.358,-2.145 c13.037,-2.644 25.24,-6.284 37.329,-11.862 c9.15,-2.93 18.6,-5.73 26.45,-11.49 c4.03,-2.99 8.72,-5.08 12.19,-8.77 c3.3,-3.45 7.6400000000000015,-5.65 10.98,-9.06 c3.22,-3.19 5.01,-7.52 8.34,-10.63 c3.22,-3.08 6.85,-5.82 9.23,-9.66 c2.6100000000000003,-4.3 6.21,-7.85 9.98,-11.14 c4.01,-3.42 6.23,-8.37 10.03,-11.98 c2.87,-2.77 5.78,-5.57 7.91,-8.98 c2.66,-4.25 6.37,-7.69 9.26,-11.77 c2.63,-3.67 6.12,-6.57 8.95,-10.07 c6.1,-8.44 13.38,-16.21 22.07,-22.04 c2.92,-2.1 4.8100000000000005,-5.21 6.85,-8.1 c3,-4.26 7.33,-7.3100000000000005 10.61,-11.33 c5.44,-7.02 10.14,-14.59 15,-22.02 c3.63,-4.07 7.17,-8.2 10.35,-12.64 c6.5,-6.71 9.26,-15.85 14.39,-23.49 c3.39,-5.85 8.16,-10.7 11.74,-16.42 c2.2,-3.4 5.25,-6.08 8.24,-8.76 c4.04,-3.42 5.94,-8.6 9.84,-12.15 c6.8100000000000005,-6.23 12.09,-14.06 19.88,-19.22 c1.24,-1.36 4.07,-2.05 3.8600000000000003,-4.22 c-1.5,-3.9 -4.39,-7.13 -5.6,-11.17 c-2.06,-6.22 -2.66,-13.49 0.620000000000004,-19.41 c3.43,-6.69 7.53,-13.09 12.56,-18.69 c3.15,-3.24 3.56,-7.94 4.91,-12.03 c1.75,-5.51 2.79,-11.2 4.27,-16.78 c0.8500000000000006,-3.48 3.18,-6.69 2.6100000000000003,-10.42 c-0.6400000000000045,-6.88 -0.27,-13.79 -0.380000000000002,-20.68 c0,-4.16 -0.3400000000000026,-8.43 0.9500000000000006,-12.45 c1.42,-4.68 2.13,-9.91 5.65,-13.58 c3.2,-3.47 6.98,-6.6 8.86,-11.05 c1.73,-4 4.37,-8.06 3.64,-12.620000000000001 c-0.6800000000000052,-4.79 -2.41,-9.47 -1.96,-14.36 c-0.020000000000000143,-3.85 2.89,-6.72 4.04,-10.2 c1.32,-10.17 -1.6300000000000003,-20.89 2.34,-30.67 c0.81,-3.29 4.6400000000000015,-4.12 6.36,-6.76 c0.7200000000000006,-1.49 1.06,-3.12 1.48,-4.7 c0.6000000000000006,-2.36 1.23,-4.7 1.85,-7.05 c0.54,0.17 1.6300000000000003,0.52 2.17,0.6900000000000056 c0.4,1.82 0.7300000000000006,3.67 0.9500000000000006,5.53 c0.3000000000000003,4.96 -3.91,8.03 -6.51,11.65 c-0.7000000000000006,0.55 -1.3900000000000001,1.1 -2.07,1.6600000000000001 c-0.4200000000000003,0.3500000000000003 -1.26,1.03 -1.6800000000000006,1.37 c0.14,8.53 -1.03,17 -0.7200000000000006,25.53 c0.3900000000000023,8.18 -3.4,15.83 -3.44,23.97 c-0.020000000000000143,3.98 -0.1600000000000011,7.97 0.11000000000000022,11.94 c0.06000000000000038,3.9 3.91,6.18 7.11,7.48 c5.36,1.7400000000000002 10.23,-2.23 15.51,-2.52 c9.48,-1.6900000000000008 18.79,1.36 27.61,4.52 c3.77,1.6900000000000008 6.83,4.79 10.91,5.8900000000000015 c4.18,1.13 8.65,2.02 12.98,1.17 c2.06,-0.5800000000000006 2.39,-3.26 1.9,-5.04 c-2.38,-7.75 -8.12,-13.67 -12.45,-20.31 c1.9,-2.3200000000000003 4.29,-4.8 3.92,-8.07 c0.1600000000000011,-2.94 -1.53,-5.42 -3.31,-7.58 c-4.79,-5.7 -7.09,-12.96 -9,-20.03 c-0.6000000000000006,-2.27 -1.6,-4.38 -2.7800000000000002,-6.38 c-0.380000000000002,-0.91 -0.740000000000004,-1.81 -1.07,-2.71 c-0.660000000000005,-4.12 -1.3800000000000001,-8.22 -1.8800000000000003,-12.36 l0.9400000000000006,0.09000000000000079 c2.38,2.55 4.35,5.53 5.44,8.870000000000001 c1.97,6.24 4.65,12.22 6.58,18.47 c2.04,5.69 4,11.51 7.32,16.61 c0.7100000000000006,1.23 1.46,2.46 2.08,3.77 c1.81,7.6 4.24,15.5 9.8,21.27 c3.75,3.85 6.24,8.98 10.74,12.04 c6.82,1.85 14.69,0.6000000000000006 19.84,-4.52 c6.21,-4.84 8.06,-12.77 11.24,-19.56 c2.49,-5.33 3.8,-11.15 6.8,-16.24 c2.6900000000000004,-4.57 4.57,-9.54 6.52,-14.45 c2.13,-5.53 6.92,-9.63 8.53,-15.4 c4.04,-11.63 1.25,-24.2 -2.21,-35.6 c-5.09,-12.98 -7.63,-26.76 -10.22,-40.41 c-0.79,-4.42 -0.11000000000000022,-9.12 -2.01,-13.3 c-1.28,-3.05 -2.91,-6.07 -2.89,-9.47 c1.32,-0.92 2.84,-1.6600000000000001 3.92,-2.9 c0.740000000000004,-6.06 -0.3600000000000003,-12.2 0.3400000000000026,-18.26 c0.3600000000000003,-2.43 1.17,-4.77 1.53,-7.2 c0.860000000000004,-11.81 4.73,-23.11 7.76,-34.49 c0.880000000000004,-7.13 2.9699999999999998,-14.09 2.7,-21.34 c1.36,-11.39 3.62,-23.04 9.46,-33.06 c0.53,-0.380000000000002 1.58,-1.1400000000000001 2.11,-1.52 c-0.09000000000000079,3.08 0.06000000000000038,6.16 0.26,9.23 c2.08,0.740000000000004 4.16,1.48 6.24,2.2800000000000002 c-5.85,3 -10.32,8.21 -12.1,14.56 c-2.66,6.91 -1.49,14.46 -3.37,21.53 c-1.27,5.05 -1.34,10.31 -2.71,15.34 c-1.36,5.2 -1.54,10.65 -3.22,15.78 c-1.44,4.21 -0.660000000000005,8.78 -1.97,13.04 c-1.42,4.83 -0.9,9.91 -0.9,14.88 c0.020000000000000143,9 0.07,18.01 -0.06000000000000038,27.02 c0.030000000000000224,2.14 -0.07,4.35 0.54,6.44 c3.09,8.07 7.25,16.46 15.18,20.76 c2.4,2.5700000000000003 5.74,4.96 5.88,8.83 c0.3500000000000003,5.7 0.46,11.42 0.22000000000000094,17.14 c0.2900000000000003,0.91 0.610000000000004,1.82 0.9600000000000006,2.74 c5.87,-0.8200000000000006 8.64,-6.55 12.24,-10.52 c3.11,-4.3 8.16,-6.52 11.42,-10.67 c2.08,-2.5700000000000003 4.57,-4.86 7.77,-5.93 c-3.18,8.04 -9.6,14.14 -15.69,20.03 c-6.67,7.05 -15.13,13.1 -18.15,22.78 c-1.54,3.25 2.09,6.59 5.29,6.08 c5.41,-0.620000000000004 10.5,-3.03 16,-3.15 c2.99,-0.05000000000000032 6.88,-0.6900000000000056 8.47,2.58 c-3.84,0.3600000000000003 -7.69,0.19000000000000106 -11.53,0.28 c-3.44,-0.08000000000000022 -6.23,2.2 -9.36,3.23 c-3.8600000000000003,1.54 -8.46,1.3800000000000001 -11.75,4.18 c-3.17,2.81 -4.24,7.09 -6.41,10.6 c-3.03,5.07 -5.25,10.57 -8.15,15.71 c-2.2800000000000002,4.57 -4.92,9.8 -3.17,15 c0.610000000000004,2.73 2.48,5.77 0.6500000000000046,8.44 c-4.05,7.38 -10,13.42 -15.12,20.03 c-5.74,5.39 -10.02,12.02 -14.58,18.38 c-2.27,3.29 -4.92,6.76 -4.8,10.98 c-0.750000000000004,7.68 2.01,16.34 -2.89,23.1 c1.4300000000000002,1.46 2.91,4.04 5.35,3.21 c4.26,-1.3 8.6,-2.38 12.76,-4.01 c9.11,-4.39 19.15,-8.620000000000001 29.46,-7.49 c-0.010000000000000073,1.4 -0.010000000000000073,2.8 0,4.22 c-6.62,2.88 -13.96,3.44 -20.54,6.42 c-3.7800000000000002,1.6300000000000003 -7.67,2.98 -11.42,4.69 c-3.44,1.4300000000000002 -4.39,5.48 -7.12,7.73 c-5.35,4.11 -11.18,7.55 -16.71,11.4 c-6.34,4.53 -8.8,12.34 -14.05,17.84 c-3.96,4.11 -7.94,8.29 -12.76,11.41 c-7.01,5.66 -13.73,11.91 -21.77,16.13 c-7.42,2.99 -15.01,5.66 -22.84,7.36 c-6.5,1.5 -10.55,7.22 -15.11,11.59 c-5.21,4.83 -9.13,11 -15.17,14.92 c-2.16,1.73 -5.8,3.7600000000000002 -4.62,7.09 c1.54,4.53 2.25,9.31 1.51,14.08 c-1.53,-0.4800000000000003 -2.77,-1.49 -3.14,-3.07 c-1.3900000000000001,-3.56 -2.27,-7.28 -3.1,-10.98 c-3.96,-0.020000000000000143 -8.49,1.1400000000000001 -10.41,4.95 c-6.92,8.870000000000001 -12.5,18.71 -19.79,27.29 c-3.15,4.08 -5.13,8.88 -7.63,13.35 c-1.7000000000000002,2.9 -2.68,6.57 -1.24,9.78 c1.07,1.45 3.13,1.62 4.7,2.35 c6.24,1.8900000000000001 11.45,6.09 17.71,7.95 c3.55,1.02 7.04,2.39 10.71,3.01 c2.74,-0.4 5.14,-2.11 7.91,-2.52 c5.3,-0.9500000000000006 10.63,-2.08 15.54,-4.38 c-0.21000000000000021,-3.1 -0.81,-6.16 -0.880000000000004,-9.26 c0.6000000000000006,-3.3200000000000003 5.12,-5.18 7.42,-2.31 c4.66,3.49 -1.1600000000000001,8.89 0.740000000000004,13.3 c3.83,2.8600000000000003 7.95,6.67 13.09,6.28 c3.85,-0.020000000000000143 7.75,-0.1600000000000011 11.55,0.6800000000000052 c5.76,1.24 11.68,0.7100000000000006 17.52,0.79 c9.16,0.11000000000000022 18.48,-0.8 27.15,-3.91 c4.62,-1.61 9.43,-2.73 13.78,-5.06 c5.39,-2.88 11.22,-5.09 15.94,-9.08 c2.98,-2.3200000000000003 5.32,-5.3 7.9,-8.03 c2.77,-2.96 6.71,-4.49 9.44,-7.51 c3.03,-3.33 6.15,-6.5600000000000005 9.44,-9.63 c5.27,-4.83 7.9,-12.31 14.52,-15.68 c4.3,-0.7200000000000006 8.73,-0.12000000000000002 13.06,-0.79 c2.51,-0.11000000000000022 5.03,-0.13 7.54,-0.32000000000000217 c5.29,-0.09000000000000079 10,-2.7 14.93,-4.27 c5.72,-1.83 10.49,-5.5600000000000005 15.76,-8.3 c5.36,-2.88 9.55,-7.71 15.42,-9.67 c2.98,-0.98 5.83,-2.43 8.09,-4.66 c4.87,-4.65 10.88,-7.82 16.19,-11.9 c1.9500000000000002,-1.4 2.93,-3.6500000000000004 3.89,-5.76 c3.58,-8.79 11.09,-15.07 15.91,-23.09 c1.52,-4.66 1.9100000000000001,-10.14 -0.8200000000000006,-14.44 c-1.54,-2.98 -4.37,-5.38 -4.95,-8.76 c0.08000000000000022,-3.8 4.88,-3.87 7.34,-5.6400000000000015 c5.93,-4.21 7.59,-11.78 10.96,-17.82 c7.28,-10.65 19.8,-16.18 27.07,-26.85 c2.6,-4.01 6.4,-6.97 9.33,-10.69 c4.82,-6.59 9.7,-13.15 13.97,-20.11 c1.77,-2.9699999999999998 3.8200000000000003,-5.77 6.12,-8.36 c1.34,3.22 2.73,6.44 4.4,9.53 c-3.36,4.99 -6.91,9.92 -11.33,14.04 c-2.24,2.09 -4.21,4.45 -5.9,7 c-2.89,4.36 -7.04,7.68 -9.93,12.03 c-4.69,6.8900000000000015 -10.94,12.47 -17.03,18.07 c-3.7600000000000002,3.35 -6.14,7.84 -9.01,11.91 c-3.46,4.97 -5.92,10.61 -7.35,16.48 c-0.78,2.88 0.77,5.62 1.6600000000000001,8.28 c4.32,-1.85 7.19,-5.73 10.49,-8.9 c3.6900000000000004,-3.92 7.97,-7.33 11.07,-11.78 c3.39,-4.95 8.2,-8.73 11.22,-13.96 c3.88,-4.46 7.59,-9.06 11.25,-13.7 c15,-14.33 29.07,-29.6 44.17,-43.84 c4.87,-4.24 7.82,-10.1 12.42,-14.58 c5.95,-6.21 8.38,-14.71 13.38,-21.57 c2.54,-3.88 4.46,-8.13 7.09,-11.96 c2.34,-3.58 5.59,-6.4 8.55,-9.44 c7.61,-8.36 18.85,-12.2 26.59,-20.43 c2.66,-2.89 5.94,-5.37 7.83,-8.88 c3.47,-9.42 5.22,-19.33 7.5,-29.06 c0.5900000000000006,-11.41 4.18,-22.7 10.26,-32.37 c3.85,-9.72 9.84,-18.48 16.7,-26.32 c1.24,-1.6300000000000003 2.16,-3.47 2.95,-5.36 c1.19,-3.19 -1.94,-6.24 -2.25,-9.44 c1.29,-0.09000000000000079 2.6,-0.1600000000000011 3.92,-0.23 c0.52,1.9 1.34,3.7 2.2800000000000002,5.45 c4.3100000000000005,-1.15 4.87,-6.09 7.65,-8.94 c5.77,-6.27 12.45,-11.620000000000001 19.17,-16.83 c10.42,-7.75 13.85,-21.36 15.19,-33.64 c0.28,-5.4 6.1,-8.63 5.83,-14.15 c0.51,-6.86 -3.31,-12.86 -5.33,-19.14 c-0.6000000000000006,-2.29 1.8800000000000003,-3.43 3.42,-4.48 c2.6,2.77 4.68,6.63 8.65,7.57 c3.07,-4.95 5.21,-10.39 7.55,-15.71 c1.87,-4.53 2.37,-9.47 4,-14.08 c2.16,-5.47 1.24,-11.45 1.53,-17.18 c0.3400000000000026,-4.2 -2.44,-7.63 -3.7800000000000002,-11.4 c4.33,0.32000000000000217 8.92,1.87 13.17,0.3400000000000026 c3.5700000000000003,-2.55 4.3100000000000005,-7.75 8.35,-9.86 c1.92,-1.1400000000000001 4.01,0.4200000000000003 5.94,0.8400000000000006 c-2.22,4.07 -5.3100000000000005,7.57 -7.67,11.54 c-1.85,3.9699999999999998 -2.85,8.28 -4.98,12.13 c-2.6500000000000004,4.9 -3.41,10.47 -5.14,15.71 c-1.19,3.55 -0.51,7.5 -2.18,10.92 c-2.13,4.6400000000000015 -3.95,9.43 -5.08,14.42 c4.23,0.630000000000004 8.5,0.78 12.77,1.06 c-1.34,3.18 -4.92,4.12 -7.62,5.78 c-4.52,2.39 -10.1,4.97 -11,10.63 c-0.860000000000004,6.06 -5.68,11.07 -4.73,17.41 c2.73,0.3700000000000018 5.21,-0.6900000000000056 6.68,-3.07 c4.68,-5.68 8.25,-12.34 13.99,-17.08 c3.42,-2.91 6.62,-6.08 9.59,-9.46 c-2.06,-1.82 -4.33,-3.38 -6.61,-4.8900000000000015 c4.61,-2.18 10.73,-0.11000000000000022 14.39,-4.28 c7.53,-7.48 14.870000000000001,-15.15 22.53,-22.5 c3.34,-3.34 8.08,-4.8900000000000015 12.77,-4.59 c8.66,0.5700000000000006 17.28,-1.4100000000000001 25.33,-4.47 c6.48,-3.38 13.36,-6.14 19.15,-10.71 c7.47,-5.41 13.66,-12.3 20.22,-18.73 c7.96,-8.04 16.08,-15.93 23.96,-24.05 c4.45,-5.2 8.93,-10.37 13.97,-15.02 c4.72,-4.29 8.66,-9.52 14.16,-12.9 c2.46,-1.52 4.91,-3.08 7.51,-4.41 c3.23,-1.71 6.96,-1.9100000000000001 10.49,-2.6900000000000004 c6.18,-1.1600000000000001 12.16,-3.18 18.26,-4.75 c6.46,-1.47 11.26,-6.69 17.72,-8.21 c6.86,-1.57 13.37,-4.29 19.73,-7.28 c4.15,-1.9100000000000001 6.84,-5.75 10.28,-8.6 c3.5700000000000003,-3.08 7.96,-5.34 10.73,-9.26 c1.34,-4.15 0.7600000000000044,-8.63 1,-12.93 c1.71,-6.04 4.49,-11.77 4.74,-18.15 c1.94,-2.5300000000000002 2.7600000000000002,-5.58 2.43,-8.75 c1.81,-6.506 4.41,-12.936 8.57,-18.336 m-139.71,283.25 c0.010000000000000073,1.7000000000000002 -0.55,3.74 0.870000000000004,5.07 c2.13,2.55 4.84,4.98 8.26,5.51 c11.05,1.08 20.87,7.39 31.95,8.27 c4.76,-1.19 9.45,-3.36 13.05,-6.76 c1.7400000000000002,-1.58 0.7300000000000006,-4.16 0.78,-6.19 c-6.1,0.620000000000004 -12.24,1.8 -18.37,0.860000000000004 c-6.69,-2.1 -13.75,-2.5300000000000002 -20.48,-4.5 c-5.53,0.12000000000000002 -10.54,-3.64 -16.06,-2.26 m-548.49,84.67 c-0.17,3.12 0.2,6.25 1.6500000000000008,9.07 c2.43,4.79 2.12,10.26 1.82,15.47 c-0.27,3.85 1.82,7.27 3.6100000000000003,10.52 c1.03,-0.870000000000004 2.19,-1.75 1.8800000000000003,-3.2800000000000002 c0.28,-6.96 0.3000000000000003,-13.93 -0.11000000000000022,-20.88 c-0.5800000000000006,-5.07 -5.39,-7.8 -8.85,-10.9 m-121.58,120.45 c-7.6400000000000015,0.6900000000000056 -13.55,6.05 -20.76,8.08 c-3.4,1.08 -7.21,2.37 -8.92,5.8100000000000005 c-1.97,4.03 -3.15,8.43 -4.03,12.83 c-0.91,10.18 0.11000000000000022,20.43 -0.4200000000000003,30.63 c-2.48,10.23 -5.58,20.32 -8.83,30.34 c-2.19,5.63 -5.67,10.72 -7.28,16.6 c-1.5,5.27 -3.9699999999999998,10.22 -5.4,15.52 c-1.15,4.46 1.06,9.3 4.7,11.93 c3.12,0.92 5.97,-0.8500000000000006 8.3,-2.74 c4.28,-3.5700000000000003 9.76,-5.27 13.92,-9.01 c5.45,-4.46 12.39,-6.42 19.26,-7.22 c4.17,-0.32000000000000217 8.54,0.4700000000000003 12.53,-1.15 c4.46,-1.86 8.12,-5.1 12.12,-7.73 c5.25,-3.27 9.23,-8.14 13.01,-12.95 c4.55,-4.97 3.8600000000000003,-12.65 8.33,-17.7 c3.19,-3.94 8.48,-5.34 11.64,-9.3 c2.63,-3.3 3.77,-7.46 5.74,-11.13 c2.17,-4.65 5.59,-8.56 7.85,-13.15 c2.83,-5.5 0.610000000000004,-11.86 -1.6,-17.16 c-1.9,-4.18 -6.09,-6.44 -10.46,-7.09 c-7.42,-2.96 -15.15,-5.18 -22.27,-8.85 c-3.64,-1.7000000000000002 -7.11,-3.77 -10.91,-5.08 c-5.33,-1.6300000000000003 -10.99,-2.26 -16.52,-1.48 m154.38,207.3 c-7.24,1.8900000000000001 -13,6.9 -19.35,10.57 c-3.6500000000000004,2.31 -7.98,3.67 -10.94,6.94 c-4.25,4.44 -9.16,8.35 -12.19,13.8 c-4.33,4.88 -7.15,10.78 -10.79,16.14 c-1.6,2.3 -2.45,5.04 -1.99,7.85 c7.78,3.79 15.14,8.74 20.86,15.3 c4.23,4.92 10.21,7.68 15.01,11.96 c2.5300000000000002,2.49 6.29,1.52 9.45,2.25 c10.85,3.06 20.1,9.69 30.1,14.64 c5.15,-3.01 10.9,-4.74 16.68,-6.11 c8.8,-2.85 18.11,-3.68 27.3,-2.79 c6.13,1.6700000000000008 12.23,3.59 17.99,6.3100000000000005 c3.56,1.9 7.61,-0.3300000000000023 10.54,-2.42 c6.51,-6.13 12.68,-12.63 19.08,-18.88 c6.94,-9.11 13.45,-18.56 19.72,-28.16 c1.3,-6.59 -4.49,-11.75 -8.94,-15.73 c-3.14,-3.98 -7.95,-5.98 -11.34,-9.66 c-3.25,-3.66 -7.98,-5.3 -11.92,-8.03 c-3.64,-1.99 -6.8,-5 -10.92,-5.97 c-4.2,-1.21 -8.5,-2.46 -12.02,-5.13 c-6.21,-4.3100000000000005 -13.8,-5.5600000000000005 -21.11,-6.6400000000000015 c-9.03,-3.11 -18.69,-1.3900000000000001 -28.02,-1.87 c-9.43,-0.7100000000000006 -18.32,3.06 -27.2,5.63 m-232.78,65.45 c-6.51,0.1 -13.17,0.9600000000000006 -19.55,-0.660000000000005 c-1.87,-0.3700000000000018 -4.34,-0.92 -5.52,1.05 c-0.630000000000004,2.71 -0.7600000000000044,5.54 -1.7400000000000002,8.18 c-5.61,14.24 -14.8,26.86 -25.83,37.39 c-7.25,6.86 -12.89,15.12 -18.78,23.12 c-2.67,4.8900000000000015 -6.77,8.96 -8.57,14.31 c-2.07,6.2 -6.43,11.55 -7.29,18.16 c0.21000000000000021,3.11 2.21,5.82 4.98,7.2 c4.08,2.67 9.18,2.8 13.86,2.17 c9.55,-2.7 17.67,-8.63 25.87,-13.98 c3.7600000000000002,-2.84 6.53,-6.76 10.28,-9.63 c4.33,-3.35 7.36,-8.02 11.67,-11.39 c6.85,-6.47 14.08,-12.7 19.41,-20.56 c7.9,-9.22 14.56,-19.39 21.55,-29.28 c3.67,-8.31 12.21,-14.44 12.37,-24.16 c-3.94,-3.08 -9.05,-3.92 -13.85,-4.68 c-6.3100000000000005,0.7300000000000006 -12.620000000000001,1.57 -18.86,2.7600000000000002 m43.13,1.12 c-7.325,8.599 -11.7,19.873 -17.469,29.603 c-6.164,10.397 -12.777,20.527 -19.812,30.355 c-14.071,19.655 -29.831,38.102 -47.069,55.049 c-1.034,1.017 -2.074,2.028 -3.119,3.034 c-1.9180000000000001,1.847 -4.012,4.066 -3.7800000000000002,6.719 c0.17300000000000001,1.9849999999999999 1.629,3.595 3.08,4.961 c13.46,12.671 32.722,17.809 51.2,17.301 c18.479,-0.507 36.423,-6.135 53.732,-12.626 c26.232,-9.837 52.047,-22.016 73.166,-40.425 c18.964,-16.53 34.967,-38.509 59.034,-45.836 c2.4210000000000003,-0.737000000000004 5.267,-1.649 6.039,-4.059 c1.766,-5.511 -7.448,-9.397 -10.786,-11.997 c-4.875,-3.7960000000000003 -10.193,-6.952 -15.813,-9.516 c-11.372,-5.187 -23.717,-8 -36.069,-9.598 c-11.274000000000001,-1.458 -22.636,-1.98 -33.972,-2.7030000000000003 c-5.936,-0.379000000000002 -11.872,-0.802 -17.786,-1.447 c-4.9030000000000005,-0.535 -11.472,-0.16200000000000123 -16.034,-2.047 c-3.66,-1.36 -7.67,-1.18 -11.33,-2.51 c-4.372,-1.528 -8.842,-2.748 -13.212,-4.258 m1279.4,162.77 c1.3,1.46 3.29,2.19 5.25,1.49 c6.91,-2.47 14.43,-3.47 20.85,-7.24 c0.45,-0.8900000000000045 0.8900000000000045,-1.79 1.31,-2.7 c-9.36,2.06 -17.9,7.13 -27.41,8.45 m-130.18,68.88 c-3.51,0.6900000000000056 -7.04,2.12 -9.19,5.1 c-1.5,4.6400000000000015 2.31,8.28 5.08,11.45 c5.83,5.83 11.7,11.63 17.47,17.53 c3.5300000000000002,3.48 6.74,7.57 11.44,9.58 c5.5,2.36 11.2,4.38 16.25,7.7 c7.62,4.06 15.2,8.620000000000001 23.84,10.1 c8.14,1.12 15.52,5.3100000000000005 23.7,6.18 c3.4,-0.46 7.32,-0.56 9.96,-3.09 c0.32000000000000217,-2.74 0.750000000000004,-6.11 -1.62,-8.06 c-4.33,-4.34 -8.76,-8.57 -13.01,-12.97 c-2.68,-3 -6.82,-3.75 -10.07,-5.9 c-11.37,-6.8900000000000015 -23.81,-11.82 -34.97,-19.06 c-6.88,-4.6 -15.11,-7.12 -21.11,-12.99 c-4.76,-4.15 -11.39,-7.38 -17.77,-5.57 m-1653.8,1.7200000000000002 c-7.19,2.6 -15.52,0.19000000000000106 -22.2,4.33 c0.660000000000005,4.21 2.7800000000000002,7.97 5.06,11.51 c5.5600000000000005,7.755 10.327,15.858 18.406,21.294 c8.926,6.006 16.691,14.498 24.658,21.82 c2.93,2.693 5.901,5.414 9.408,7.2940000000000005 c3.692,1.979 7.829,2.944 11.91,3.8890000000000002 c8.288,1.9180000000000001 16.576,3.837 24.864,5.755 c1.9300000000000002,0.4470000000000023 10.443,3.6820000000000004 11.964,2.606 c2.338,-1.6540000000000008 -0.06400000000000022,-7.993 -0.2890000000000003,-10.198 c-0.750000000000004,-5.12 -3.49,-9.59 -5.47,-14.28 c-2.5300000000000002,-5.79 -4.94,-11.82 -9.32,-16.5 c-2.66,-3.08 -6.32,-5.36 -8.02,-9.18 c-1.56,-3.36 -4.96,-5.21 -7.05,-8.16 c1.61,-2.45 3.93,-4.52 4.99,-7.26 c-0.7100000000000006,-4.04 -0.8900000000000045,-10.17 -5.9,-11.15 c-7.77,-1.4 -15.63,-2.91 -23.56,-2.36 c-9.811,0.3600000000000003 -19.711,-0.6000000000000006 -29.451,0.5900000000000006 m1334.6,3.55 c-4.6400000000000015,0.6500000000000046 -8.59,3.41 -13.05,4.65 c-7.62,1.87 -15.01,4.52 -22.54,6.7 c-6.99,3.23 -14.74,4.07 -21.84,6.99 c-8.93,2.6900000000000004 -17.26,6.96 -25.19,11.8 c-1.967,1.2 -2.797,3.333 -4.27,5.029 c-1.709,1.967 -3.6910000000000007,3.7190000000000003 -5.803,5.24 c-8.388,6.038 -20.582,5.53 -26.807,14.591 c-3.802,5.534 3.984,18.197 6.099,23.192 c3.4450000000000003,8.139 7.17,16.175 11.574,23.845 c9.032,15.733 20.851,28.26 35.968,38.183 c7.95,4.96 17.41,6.62 26.65,6.88 c1.847,0.22600000000000123 4.525,-1.868 3.489,-3.888 c-0.3660000000000003,-0.7140000000000006 -1.043,-1.208 -1.697,-1.6750000000000007 c-7.088,-5.064 -16.03,-9.808 -22.014,-16.078 c-5.246,-5.497 -11.909,-10.019 -16.589,-16.048 c-5.899,-7.601 -9.902,-16.677 -9.122,-26.431 c1.006,-12.581 8.876,-27.241 21.432,-31.577 c7.29,-2.517 16.833,-2.931 23.849,0.6680000000000051 c3.48,1.2 6.18,5.35 10.26,3.9699999999999998 c3.96,-3.8 7.9,-7.85 13.08,-10 c13.957,-5.777 29.536,-3.996 39.769,8.038 c17.603,20.701 1.407,50.593 -13.497,67.759 c-1.649,1.9 -3.396,3.766 -4.516,6.019 c-0.7140000000000006,1.437 -1.912,4.889 -0.754000000000004,6.397 c1.078,1.403 3.826,1.1520000000000001 5.007,-0.14300000000000004 c4.66,-4.33 8.8,-9.19 12.82,-14.12 c5.479,-7.145 9.885,-15.638 13.785,-23.691 c3.835,-7.918 6.686,-16.308 8.541,-24.906 c3.71,-17.201 3.4370000000000003,-35.274 -0.9460000000000006,-52.324 c-1.542,-6 -3.324,-12.515 -6.43,-17.919 c-0.98,-1.61 -2.23,-3.63 -4.41,-3.25 c-7.34,0.030000000000000224 -14.68,-0.25 -22.02,-0.11000000000000022 c-3.748,-0.011000000000000105 -7.148,1.8090000000000002 -10.828,2.209 m-1264.4,3.23 c-1.4100000000000001,4.38 -0.4900000000000003,9.25 1.17,13.47 c1.46,3.7800000000000002 2.11,7.82 3.49,11.64 c1.1400000000000001,3.17 3.38,5.76 5.35,8.46 c2.79,3.77 5.06,7.92 6.95,12.21 c3.1,7.23 8.47,13.54 9.45,21.58 c0.3600000000000003,4.15 3.39,8.31 7.76,8.73 c6.01,0.81 12.36,3.02 18.25,0.4200000000000003 c1.45,-3.22 1.56,-6.79 0.4100000000000003,-10.12 c-3.01,-10 -7.16,-19.63 -11.82,-28.96 c-5.1,-8.870000000000001 -12.3,-16.31 -20.16,-22.76 c-5.04,-3.96 -7.8900000000000015,-10.25 -13.71,-13.25 c-2.11,-1.1400000000000001 -4.8,-2.72 -7.14,-1.42 m1256.7,56.97 c-4.2,1.58 -7.72,4.88 -9.83,8.81 c-1.85,3.09 -1.07,6.84 -1.9500000000000002,10.2 c-2.3,5.74 -10.71,7.09 -14.83,2.49 c-2.04,-3.34 -3.2,-7.22 -5.9,-10.13 c-5.726,-6.172 -15.335,-7.014 -22.325,-2.3 c-6.07,4.092 -9.17,11.71 -7.109,18.744 c2.192,7.478 8.857,12.7 14.425,17.679 c9.525,8.516 19.466,16.566 29.777,24.11 c1.6190000000000002,1.184 3.339,2.394 5.329,2.6430000000000002 c4.277,0.534 6.811,-5.243 9.011,-8.035 c3.15,-3.998 6.167,-8.101 9.045,-12.299 c8.516,-12.421 27.871,-36.652 9.957,-49.592 c-4.25,-3.83 -10.42,-2.79 -15.6,-2.3200000000000003 m-1173.9,49.83 c-0.45,2.5300000000000002 1.19,4.74 1.92,7.07 c1.71,4.42 0.15000000000000024,9.44 2.3200000000000003,13.76 c2.22,4.91 3.59,10.11 4.65,15.39 c1.8,5.7 0.6900000000000056,12.89 5.59,17.23 c6.88,4.93 15.620000000000001,5.49 23.63,7.24 c8.03,3 16.81,4.24 24.11,8.99 c8.39,4.3100000000000005 16.69,8.81 25.42,12.41 c5.86,2.21 11.34,6.09 17.82,6.13 c5.68,0.18000000000000024 11.36,-0.18000000000000024 17.05,-0.13 c7.06,0.22000000000000094 13.46,-3.24 19.71,-6.05 c4.26,-1.53 5.16,-7.6 2.42,-10.82 c-3.77,-4.7 -7.63,-9.45 -9.97,-15.05 c-2.64,-5.94 -3.25,-13.03 -8.13,-17.75 c-6.34,-7.68 -16.71,-9.43 -25.32,-13.44 c-6.6,-3.24 -13.99,-4.18 -20.59,-7.35 c-6.94,-2.81 -14.4,-3.9 -21.65,-5.57 c-4.94,-1.1600000000000001 -9.49,-3.81 -14.61,-4.13 c-3.26,-0.21000000000000021 -6.46,-0.79 -9.64,-1.46 l-0.1600000000000011,0.7300000000000006 l-2.2,-0.6000000000000006 c-0.92,-0.79 -1.86,-1.58 -3.06,-1.83 c-8.59,-2.42 -17.06,-5.44 -25.92,-6.79 c-1.54,-0.53 -2.7800000000000002,0.7300000000000006 -3.39,2.02 z" fill="#050305" id="svg_3" class=""/><path d="m1639.200002861023,150.63 c0.7000000000000006,-4.6 2.23,-9.02 3.49,-13.49 " fill="#8BC43F" id="svg_4" class=""/><path d="m1643.800002861023,260.57 c-0.3900000000000023,-0.5700000000000006 -0.772,-1.139 -1.1360000000000001,-1.707 c-4.595,-7.174 -9.313,-14.488 -15.99,-19.779 c-5.421,-4.295 -11.921,-7.066 -18.596,-8.878 c-9.528,-2.587 -18.302,-2.19 -27.946,-2.063 c-3.8,-1.3800000000000001 -7.25,-3.5300000000000002 -10.54,-5.8100000000000005 c0.10700000000000012,-0.04600000000000044 0.21700000000000041,-0.08500000000000066 0.3240000000000023,-0.13 c-0.18700000000000044,-0.11700000000000069 -0.3650000000000003,-0.2470000000000004 -0.531,-0.3900000000000023 c-1.7560000000000002,0.921 -3.524,1.566 -5.454,1.99 c0.03700000000000001,1.053 0.07400000000000002,2.107 0.11000000000000022,3.16 c4.541,1.9060000000000001 10.856,4.192 14.04,8.11 c1.03,1.267 1.139,4.711 1.54,6.312 c0.5670000000000006,2.262 1.177,4.532 2.118,6.6720000000000015 c1.7530000000000001,3.989 4.806,7.695 7.934,10.703 c6.7010000000000005,6.444 15.641,10.268 24.682,12.021 c6.667,1.2930000000000001 13.48,1.561 20.254,1.4060000000000001 c3.4050000000000002,-0.07800000000000012 6.806,-0.272 10.204,-0.4900000000000003 c2.623,-0.16800000000000143 5.68,0.23 4.016,-3.208 c-1.3250000000000002,-2.739 -3.267,-5.345 -5.029,-7.9190000000000005 z" fill="#8BC43F" id="svg_5" class=""/><path d="m928.1000028610229,248.27 c6.469,-1.494 8.318,5.055 11.849,8.55 c4.555,4.508 9.411,8.021 13.251,13.318 c8.048,11.1 12.699,25.001 11.024,38.664 c-1.025,8.367 -8.056,14.794 -8.155,23.397 c-1.6600000000000001,-0.010000000000000073 -3.29,-0.010000000000000073 -4.92,0 c-0.8400000000000006,-1.77 -0.860000000000004,-4.28 -2.84,-5.21 c-3.166,-1.487 -5.436,-2.151 -8.057,-4.628 c-2.742,-2.591 -5.154,-5.522 -7.221,-8.676 c-4.159,-6.348 -6.917,-13.598 -8.224,-21.065 c-1.372,-7.84 -1.207,-15.892 0.08100000000000022,-23.731 c0.6330000000000042,-3.851 1.58,-7.616 2.6590000000000007,-11.363 c0.23800000000000004,-0.8230000000000006 0.8140000000000006,-9.316 0.553,-9.256 z" fill="#8BC43F" id="svg_6" class=""/><path d="m1985.3000028610231,308.97 c2.693,-5.526 7.748,-11.462 14.277,-12.219 c-0.0030000000000000317,0.3390000000000026 -0.011000000000000105,0.6860000000000052 -0.017000000000000168,1.029 c0.26,2.5 -1.24,5.96 1.1,7.71 c3.36,0.7200000000000006 6.86,0.620000000000004 10.29,0.32000000000000217 c2.93,-0.27 5.77,-2 8.77,-1.01 c-1.73,2.95 -3.37,5.98 -5.52,8.65 c-2.2800000000000002,2.71 -6.15,3.05 -8.79,5.26 c-1.49,1.56 -1.53,4.44 0.15000000000000024,5.9 c4.536,3.941 8.49,7.9350000000000005 14.272,10.069 c1.6660000000000008,0.615000000000004 3.428,1.104 4.823,2.204 c1.872,1.477 2.078,3.566 1.5790000000000002,5.744 c-4.975,-0.3550000000000003 -9.481,-2.895 -14.077,-4.833 c-3.116,-1.314 -6.507,-2.38 -9.926,-2.263 c-3.423,0.1180000000000007 -6.527,1.8210000000000002 -10,1.848 c-4.151,0.03200000000000011 -8.311,-0.978 -11.97,-2.943 c-3.863,-2.075 -7.372,-5.166 -9.445,-9.073 c-1.09,-2.056 -1.561,-4.138 -1.812,-6.428 c-0.128,-1.169 -0.534,-2.218 -1.134,-3.221 c-0.537,-0.8980000000000046 -1.982,-1.994 -2.09,-3.01 c-0.3550000000000003,-3.371 4.33,-6.757 7.267,-6.91 c1.346,-0.07 12.084,3.524 12.253,3.176 z" fill="#050305" id="svg_7" class=""/><path d="m1682.900002861023,334.26 c4.8900000000000015,-0.976 9.91,-1.3410000000000002 14.891,-1.216 c4.076,0.10200000000000002 8.473,-0.8350000000000006 6.7940000000000005,4.349 c-0.9600000000000006,2.963 -2.299,5.232 -3.02,8.304 c-0.7600000000000044,3.236 -1.871,6.388 -3.295,9.391 c-2.848,6.005 -6.957,11.421 -12.035,15.715 c-8.879,7.51 -19.215,10.238 -30.51,11.103 c2.758,0.789 5.651,0.01900000000000005 8.456,0.3590000000000003 c2.127,0.258 4.019,1.078 5.961,2.048 c4.193,2.096 7.997,4.948 11.241,8.328 c3.516,3.664 6.533,7.949 8.682,12.555 c1.091,2.338 1.9929999999999999,4.806 2.418,7.359 c0.538,3.229 0.8900000000000045,4.547 -2.534,4.909 c-7.213,0.7640000000000045 -14.576,-0.18900000000000106 -21.442,-2.483 c-6.356,-2.124 -14.229,-5.686 -19.587,-9.748 c-3.39,-2.5700000000000003 -6.19,-5.82 -9.21,-8.79 c-2.451,-2.229 -2.325,-5.682 -5.423,-7.507 c-1.207,-2.484 0.05500000000000011,-5.519 1.929,-7.547 c1.875,-2.028 4.318,-3.468 6.166,-5.52 c3.629,-4.03 4.464,-9.755 6.3420000000000005,-14.843 c3.906,-10.578 12.836,-18.88 23.181,-23.366 c3.537,-1.533 7.228,-2.648 10.995,-3.4 z" fill="#8BC43F" id="svg_8" class=""/><path d="m1889.6000028610229,342.86 c3.19,-2.29 6.8100000000000005,-3.95 10.57,-5.11 c0.19000000000000106,0.3900000000000023 0.5900000000000006,1.15 0.78,1.53 c0.561,1.122 -1.146,5.472 -1.322,6.8260000000000005 c-0.11900000000000072,0.913 -0.6320000000000041,3.021 -0.19400000000000123,3.863 c0.5900000000000006,1.135 1.557,0.6770000000000052 2.938,0.5790000000000006 c4.612,-0.3260000000000023 9.224,-0.6830000000000052 13.839,-0.9640000000000006 c2.052,-0.125 3.825,-0.26 5.849,-0.7130000000000006 c0.4080000000000003,-0.09100000000000083 5.938,-0.4860000000000003 5.66,-0.021000000000000168 c-3.41,5.7 -6.84,11.99 -12.94,15.19 c-2.91,1.8900000000000001 -7.21,2.8600000000000003 -8.28,6.57 c-0.91,2.87 1.98,4.62 3.81,6.25 c3.96,2.94 7,7.17 11.620000000000001,9.21 c4.25,1.9500000000000002 8.369,4.1690000000000005 12.489,6.399 c0.3660000000000003,0.19800000000000129 0.5780000000000006,5.249 0.7020000000000006,5.944 c0.3370000000000026,1.895 -0.06000000000000038,3.1550000000000002 -2.193,2.412 c-1.6750000000000007,-0.5830000000000006 -3.457,-2.456 -4.968,-3.431 c-1.795,-1.157 -3.64,-2.239 -5.569,-3.157 c-10.847,-5.158 -23.579,-1.44 -35.191,-2.619 c-6.467,-0.6560000000000046 -12.942,-2.513 -18.213,-6.316 c-3.154,-2.276 -5.824,-5.286 -7.577,-8.767 c-0.861000000000004,-1.711 -1.546,-3.569 -1.86,-5.464 c-0.3410000000000026,-2.062 0.06000000000000038,-4.1 -0.3980000000000026,-6.193 c-0.9600000000000006,-2.6500000000000004 -4.2,-2.98 -6.43,-3.9699999999999998 l0.4200000000000003,-0.5900000000000006 c2.87,-3.7800000000000002 5.6400000000000015,-8.05 10.02,-10.23 c6.34,-1.75 11.27,4.47 17.4,4.68 c3.7880000000000003,-3.348 4.878,-8.878 9.038,-11.908 z" fill="#050305" id="svg_9" class=""/><path d="m1280.400002861023,339.2 c1.7200000000000002,-0.04000000000000011 3.45,-0.07 5.19,-0.07 c1.534,3.537 2.585,7.407 4.716,10.581 c2.242,3.339 4.623,6.41 6.441,10.035 c3.5700000000000003,7.119 5.652,14.991 5.981,22.952 c0.348000000000003,8.408 -1.2610000000000001,16.877 -4.581,24.605 c-1.5830000000000002,3.685 -3.501,7.755 -6.254,10.699 c-2.588,2.7670000000000003 -5.192,5.081 -5.293,9.247 c-1.32,0.07 -2.63,0.14 -3.92,0.23 c-0.77,-2.22 -1.08,-4.65 -2.36,-6.6400000000000015 c-2.08,-2.55 -5.08,-4.34 -6.58,-7.33 c-5.726,-11.413 -8.405,-24.437 -6.925,-37.166 c0.744000000000004,-6.398 2.542,-12.665000000000001 5.368,-18.455 c3.144,-6.441 7.034,-11.378 8.217,-18.688 z" fill="#8BC43F" id="svg_10" class=""/><path d="m1118.6000028610229,358.15 c3.95,1.6700000000000008 8.22,3.06 11.47,5.99 c2.165,2.373 3.502,5.297 4.97,8.116 c1.8050000000000002,3.465 4.021,3.321 7.454,1.326 c1.7440000000000002,-1.013 3.329,-2.309 5.174,-3.123 c9.247,-4.079 13.945,5.343 20.141,10.02 c-2.16,1.85 -5.57,0.8300000000000006 -7.54,2.99 c-2.467,2.705 -1.59,7.259 -3.005,10.629 c-1.738,4.138 -4.493,7.853 -7.98,10.682 c-5.125,4.158 -11.537,5.83 -18.031,6.117 c-5.818,0.257 -11.499,-1.176 -17.238,-1.859 c-5.891,-0.7010000000000006 -11.384,1.014 -17.116,2.261 c-3.85,0.380000000000002 -4.74,4.92 -7.98,6.25 c-2.95,0.81 -4.68,-2.91 -4.5,-5.33 c2.01,-3.75 6.87,-3.67 10.25,-5.5 c4.72,-2.7600000000000002 7.84,-7.51 12.4,-10.51 c1.87,-1.37 4.13,-2.43 5.43,-4.44 c0.06000000000000038,-1.34 0.3500000000000003,-3.14 -1.17,-3.7800000000000002 c-4.52,-2.75 -9.81,-4.77 -13.01,-9.2 c-2.59,-3.39 -6.02,-6.47 -6.78,-10.870000000000001 c4.35,-1.01 8.18,1.86 12.46,1.85 c3.564,-0.008000000000000071 7.647,0.747000000000004 11.131,0.18200000000000024 c7.215,-1.1680000000000001 2.749,-7.118 3.47,-11.801 z" fill="#050305" id="svg_11" class=""/><path d="m847.620002861023,427.82 c0.6820000000000052,-0.4940000000000003 6.173,-3.263 6.705,-1.512 c2.603,8.568 5.222,17.215 5.9670000000000005,26.138 c0.4320000000000013,5.165 0.202,10.428 -0.995,15.483 c-1.246,5.263 -4.058,9.609 -6.111,14.516 c-1.098,2.624 -3.916,5.091 -5.35,7.698 c10.585,-4.813 23.554,-3.959 33.417,2.2 c4.218,2.6340000000000003 8.793,5.365 13.758000000000001,5.093 c-0.234,0.013000000000000109 0.23800000000000004,4.766 -0.06600000000000056,5.167 c-0.614000000000004,0.812 -2.909,0.793 -3.912,1.052 c-3.275,0.8440000000000006 -6.368,2.252 -9.405,3.714 c-5.937,2.858 -11.835,6.21 -18.522,6.837 c-6.18,1.49 -12.71,2.71 -18.97,0.8500000000000006 c-4.92,-1.6700000000000008 -10.13,-2.16 -15.03,-3.91 c-1,2.05 -1.4,4.29 -1.6500000000000008,6.54 c-0.6800000000000052,0.19000000000000106 -2.05,0.5800000000000006 -2.73,0.77 c-0.54,-0.17 -1.6300000000000003,-0.52 -2.17,-0.6900000000000056 c0.3900000000000023,-3.6100000000000003 2.38,-6.77 2.72,-10.38 c0.5910000000000006,-6.277 1.2930000000000001,-12.142 0.2840000000000003,-18.44 c-1.081,-6.751 -3.172,-13.368 -3.284,-20.251 c-0.135,-8.308 2.6990000000000007,-16.523 7.314,-23.433 c3.226,-4.828 7.299,-9.048 11.825,-12.67 c2.017,-1.6150000000000002 4.176,-3.241 6.205,-4.772 z" fill="#8BC43F" id="svg_12" class=""/><path d="m1654.500002861023,525.86 c4.699,-0.81 9.599,0.3300000000000023 12.949,3.869 c2.297,2.427 4.011,7.722 7.5120000000000005,8.727 c3.572,1.025 5.928,-3.347 8.306000000000001,-5.118 c3.449,-2.569 8.705,-2.571 12.667,-1.064 c2.601,0.989 5.069,2.7590000000000003 6.711,5.024 c1.314,1.8130000000000002 1.272,1.613 0.1140000000000006,3.186 c-0.3920000000000023,0.532 -4.446,2.8 -4.36,3.186 c1.766,7.942 -1.8570000000000002,16.294 -7.283,22.07 c-5.689,6.055 -13.863,9.721 -22.207,9 c-4.757,-0.526 -10.685,1.6350000000000002 -15.387,2.473 c-5.19,0.925 -9.868,3.742 -14.162,6.886 c-2.123,1.5550000000000002 -4.275,3.798 -6.642,4.947 c-2.06,1 -1.661,1.088 -3.009,-0.973 c-0.998,-1.526 -1.8,-3.231 -2.6500000000000004,-4.8420000000000005 c4.48,-3.58 10.12,-5.59 14.01,-9.94 c3.456,-3.709 8.169,-6.996 11.006,-11.196 c1.19,-1.762 1.8760000000000003,-3.9779999999999998 1.356,-6.04 c-0.04000000000000011,-0.15900000000000106 -4.678,-1.347 -5.178,-1.556 c-2.378,-0.993 -4.6080000000000005,-2.335 -6.7940000000000005,-3.688 c-3.06,-1.9100000000000001 -6.53,-3.37 -8.9,-6.18 c-1.762,-2.089 -2.662,-4.509 -3.6910000000000007,-7.004 c6.579,-0.525 13.176,-0.8130000000000006 19.776,-0.862000000000004 c3.036,-0.023000000000000256 6.328,1.239 6.86,-1.961 c0.137,-0.8190000000000006 -1.6300000000000003,-8.836 -1.004,-8.944 z" fill="#050305" id="svg_13" class=""/><path d="m1546.000002861023,572.22 c1.48,0 2.99,0.030000000000000224 4.51,0.09000000000000079 c0.8200000000000006,4.17 4.65,6.96 8.67,7.68 c10.646,1.843 18.939,10.421 24.68,19.03 c3.883,5.823 6.361,12.529 7.752,19.363 c1.324,6.502 1.7240000000000002,13.148 1.7670000000000003,19.771 c0.017000000000000168,2.692 2.218,13.519 -2.838,12.717 c-0.738000000000004,-0.11700000000000069 -1.3960000000000001,-0.518 -2.032,-0.911 c-3.338,-2.062 -6.676,-4.125 -10.014,-6.187 c-7.6850000000000005,-4.748 -15.467,-9.574 -21.656,-16.154 c-5.516,-5.865 -9.381,-13.043 -10.316,-21.09 c-0.435000000000002,-3.745 -1.971,-6.788 -1.3130000000000002,-10.69 c0.7170000000000006,-4.248 2.792,-8.192 2.959,-12.548 c-0.809,-3.6910000000000007 -2.6790000000000003,-7.201 -2.169,-11.071 z" fill="#8BC43F" id="svg_14" class=""/><path d="m1213.000002861023,606.17 c1.131,-0.504 2.3360000000000003,-0.932 3.641,-1.266 c7.391,-1.8940000000000001 15.114,-2.484 22.714,-1.8920000000000003 c9.114,0.7110000000000006 18.098,3.135 26.317,7.141 c4.2780000000000005,2.085 8.285,4.615 12.072,7.493 c2.541,1.9300000000000002 4.309,3.076 1.6320000000000001,5.308 c-2.873,2.396 -6.92,4.133 -10.201,5.925 c-7.104,3.8810000000000002 -14.541,7.271 -22.431,9.197 c-16.814,4.104 -34.789,0.232 -45.493,-14.1 c-2.88,-3.93 -8.2,-1.4 -12.21,-2.02 c-0.14,-1.54 -0.19000000000000106,-3.08 -0.14,-4.6 c3.48,-1.15 7.14,-1.06 10.75,-1.3900000000000001 c4.601,-3.681 8.222,-7.514 13.349,-9.796 z" fill="#8BC43F" id="svg_15" class=""/><path d="m2034.000002861023,691.18 c4.53,-2.12 9.36,-3.62 14.19,-4.95 c-1.4300000000000002,5.47 -3.98,10.69 -3.9699999999999998,16.5 c7.9,-0.030000000000000224 15.88,0.51 23.73,-0.740000000000004 c3.49,-0.46 7.04,-0.23 10.57,0.030000000000000224 c-0.610000000000004,2.59 -2.83,4.29 -4.14,6.5 c-1.8,2.8 -3.71,5.65 -6.57,7.47 c-5.23,3.36 -10.2,7.41 -16.28,9.1 c-1.85,0.27 -2.19,2.06 -2.29,3.6100000000000003 c-0.02800000000000015,0.4280000000000003 7.239,6.242 8.19,7.245 c2.939,3.096 6.149,5.962 9.481,8.628 c6.536,5.231 13.721,9.653 21.344,13.115 c-1.598,0.4480000000000023 -3.196,0.8950000000000045 -4.7940000000000005,1.342 c-0.4120000000000003,0.11500000000000062 0.754000000000004,7.632 0.8190000000000006,8.173 c-0.22500000000000123,-1.862 -7.852,-5.638 -9.447,-6.566 c-3.621,-2.106 -7.425,-3.896 -11.354,-5.347 c-6.812,-2.515 -16.062,-5.35 -23.385,-4.154 c-20.27,3.3120000000000003 -47.781,-9.081 -46.715,-32.986 c-0.14,-1.7400000000000002 0.3500000000000003,-3.85 -1.1,-5.16 c-2.39,-0.45 -4.84,-0.610000000000004 -7.06,-1.57 c3.09,-1.84 5.8900000000000015,-4.12 7.59,-7.36 c2.14,-3.99 6.8,-5.86 11.2,-5.33 c7.44,0.05000000000000032 11.61,7.94 18.51,9.29 c3.861,-5.62 5.151,-13.19 11.481,-16.84 z" fill="#050305" id="svg_16" class=""/><path d="m1244.1000028610229,783.69 c2.033,-0.3400000000000026 4.084,-0.5790000000000006 6.138,-0.7320000000000016 c1.407,-0.10500000000000002 15.751,-0.532 15.722,-0.806 c0.402,3.798 -1.574,7.944 -2.6750000000000007,11.577 c-1.306,4.309 -2.849,8.562 -4.931,12.563 c-6.981,13.416 -20.146,23.45 -34.932,26.626 c3.3360000000000003,-0.7170000000000006 5.953,0.9380000000000006 8.895,2.108 c3.135,1.248 5.121,2.467 7.338,5.139 c5.245,6.323 9.854,13.173 13.74,20.411 c0.9420000000000006,1.7550000000000003 1.84,3.533 2.6980000000000004,5.33 c0.996,2.088 1.85,3.466 -1.036,3.319 c-15.061,-0.77 -30.685,-3.442 -43.742,-11.365 c-4.148,-2.517 -8.07,-5.644 -10.924,-9.605 c-1.453,-2.017 -2.453,-4.162 -3.263,-6.5 c-0.8400000000000006,-2.425 -2.026,-4.6690000000000005 -2.51,-7.248 c2.113,0.2140000000000004 3.84,-1.6780000000000008 4.797,-3.574 c1.714,-3.398 3.723,-6.216 5.977,-9.294 c2.271,-3.101 2.847,-7.994 4.3420000000000005,-11.568 c1.7630000000000003,-4.212 3.957,-8.277 6.884,-11.801 c4.708,-5.666 11.167,-9.738 18.111,-12.196 c3.045,-1.074 6.187,-1.852 9.371,-2.384 z" fill="#8BC43F" id="svg_17" class=""/><path d="m1326.700002861023,799.77 c6.8900000000000015,-0.32000000000000217 13.56,3.6 16.01,10.16 c4.85,0.26 6.91,-6.11 11.88,-5.44 c4.9,-0.6000000000000006 8.69,2.98 11.53,6.5 c-1.34,1.61 -3.51,2.9699999999999998 -3.48,5.29 c-0.3700000000000018,3.26 -0.020000000000000143,6.78 -1.71,9.74 c-3.62,6.11 -9.41,11.01 -16.29,12.96 c-5.74,2.38 -12.03,1.1400000000000001 -18,2.11 c-2.23,0.3300000000000023 -4.45,0.620000000000004 -6.66,0.8900000000000045 c-2.6900000000000004,2.48 -4.87,5.5600000000000005 -8,7.51 c-2.4,0.17 -4.66,-2.8600000000000003 -2.5700000000000003,-4.73 c4.84,-5.21 10.54,-9.6 15.05,-15.12 c1.27,-1.4300000000000002 1.77,-3.72 0.5800000000000006,-5.34 c-1.82,-1.48 -4.27,-1.79 -6.37,-2.67 c-5.01,-1.62 -8.38,-5.94 -11.55,-9.86 c6.74,-1.48 13.73,-1.44 20.41,-3.42 c-0.14,-2.87 -0.4800000000000003,-5.74 -0.8300000000000006,-8.58 z" fill="#050305" id="svg_18" class=""/><path d="m2201.900002861023,958.21 c2.465,-0.4170000000000003 4.959,-0.6630000000000051 7.46,-0.7270000000000006 c1.689,-0.04400000000000037 3.431,0.002000000000000017 4.983,0.6670000000000051 c4.776,2.048 1.584,9.272 0.6720000000000051,12.981 c-1.465,5.956 -3.591,11.779 -6.716,17.073 c-4.591,7.776 -11.496,14.403 -19.979,17.498 c-3.3280000000000003,1.214 -7.244,2.183 -8.878,5.3260000000000005 c1.016,-1.953 7.483,0.5690000000000006 9.051,1.119 c3.882,1.361 7.29,3.787 10.174,6.689 c3.511,3.534 6.286,7.719 9.035,11.873 c0.989,1.494 2.002,3.049 2.278,4.82 c0.521,3.353 -2.6310000000000002,6.213 -5.509,7.198 c-2.238,0.7660000000000045 -4.655,0.803 -7.018,0.696000000000006 c-9.455,-0.4310000000000003 -18.771,-3.165 -27.035,-7.761 c-4.205,-2.339 -8.143,-5.161 -11.692,-8.411 c-3.505,-3.209 -5.816,-6.651 -9.761,-9.322 c-0.7600000000000044,-3.74 2.89,-5.45 4.93,-7.9 c4.5,-4.43 7.05,-10.49 8.37,-16.58 c1.9849999999999999,-5.424 4.338,-10.711 7.052,-15.81 c2.395,-4.5 6.482,-7.742 10.659,-10.587 c6.562,-4.467 14.097,-7.518 21.924,-8.842 z" fill="#8BC43F" id="svg_19" class=""/><path d="m2093.600002861023,1110.8 c0.456,-0.4130000000000003 0.919,-0.8200000000000006 1.389,-1.219 c8.323,-7.059 18.996,-10.033 29.777,-10.469 c9.76,-0.39500000000000246 19.454,1.2970000000000002 28.895,3.629 c2.761,0.6820000000000052 10.35,1.3170000000000002 12.052,3.744 c2.145,3.059 -4.805,7.154 -6.8580000000000005,8.514 c-5.899,3.91 -10.128,9.577 -15.827,13.733 c-5.975,4.357 -12.932,7.372 -20.21,8.697000000000001 c-7.681,1.3980000000000001 -15.691,0.909 -23.158,-1.359 c-6.603,-2.005 -11.357,-8.085 -18.601,-8.212 c-0.926,-1.6980000000000008 0.3860000000000023,-3.71 1.629,-5.192 c3.456,-4.119 6.932,-8.258 10.912,-11.866 z" fill="#8BC43F" id="svg_20" class=""/><path d="m1881.900002861023,1277.3 c0.2900000000000003,-0.52 0.880000000000004,-1.56 1.17,-2.08 c-0.2900000000000003,0.52 -0.880000000000004,1.56 -1.17,2.08 z" fill="#8BC43F" id="svg_21" class=""/><path d="m1863.700002861023,1299.1 c2.64,-1.79 3.8600000000000003,-4.92 6.16,-7.07 c-1.04,1.7400000000000002 -2.05,3.49 -3.06,5.25 c0.4,1.15 0.8200000000000006,2.3200000000000003 1.27,3.5 c-0.56,1.52 -1.28,2.99 -2.03,4.43 c-0.2150000000000004,0.4120000000000003 6.173,7.641 6.805,8.512 c2.01,2.7720000000000002 4.3260000000000005,5.755 5.938,8.752 c3.431,6.378 4.323,15.401 4.773,22.516 c0.22200000000000109,3.5140000000000002 0.21700000000000041,7.037 0.21200000000000024,10.558 c-0.005000000000000037,3.504 0.263,7.131 -0.015000000000000109,10.622 c-0.3500000000000003,4.386 -2.29,3.078 -5.224,1.036 c-5.491,-3.8200000000000003 -10.676,-8.075 -15.482,-12.729 c-3.244,-3.141 -6.461,-6.659 -8.163,-10.909 c-1.741,-4.347 -1.25,-9.209 -3.1630000000000003,-13.549 c0.3970000000000026,0.9 -2.219,5.816 -2.6590000000000007,6.835 c-1.133,2.624 -2.517,4.723 -4.434,6.823 c-3.7,4.056 -7.731,7.713 -12.475,10.564 c-5.8,3.485 -12.295,5.815 -18.989,6.8100000000000005 c-3.521,0.523 -7.099,0.6790000000000052 -10.65,0.434000000000002 c-3.795,-0.262 -5.359,-0.7650000000000045 -5.08,-4.992 c1.335,-20.193 15.999,-38.101 35.597,-43.105 c7.23,-0.5 14.620000000000001,-2.18 20.74,-6.27 c3.739,-2.108 6.4190000000000005,-5.588 9.929,-8.018 z" fill="#8BC43F" id="svg_22" class=""/><path d="m2154.600002861023,1389.9 c1.25,-0.3600000000000003 2.5300000000000002,-0.7200000000000006 3.83,-1.07 c2.41,3.85 4.75,7.8100000000000005 7.82,11.21 c3.22,1.4300000000000002 7.14,0.620000000000004 10.24,2.6 c16.9,10.794 28.324,30.296 27.626,50.584 c-0.11700000000000069,3.4 -0.908,7.751 -3.575,10.158 c-2.84,2.5620000000000003 -7.254,1.342 -10.563,0.11700000000000069 c-9.03,-3.343 -17.024,-9.273 -23.072,-16.742 c-5.628,-6.9510000000000005 -11.687,-17.309 -10.967,-26.607 c-0.27,-6.19 2.3200000000000003,-11.94 3.27,-17.95 c-0.19000000000000106,-1.84 -1.37,-3.41 -2.3,-4.91 c-1.729,-2.1 -2.399,-4.73 -2.309,-7.39 z" fill="#8BC43F" id="svg_23" class=""/><path d="m1217.1000028610229,1403.5 c1.48,-1.314 3.151,-2.323 5.091,-2.702 c5.844,-1.1440000000000001 11.965,5.7 17.134,7.881 c7.084,0.8460000000000006 13.129,1.302 19.782,4.444 c6.328,2.988 12.051,7.271 16.637,12.562 c5.087,5.87 8.746,12.949 10.695,20.463 c0.756000000000004,2.917 2.971,7.931 1.806,10.924 c-1.419,3.644 -8.22,2.295 -11.27,1.911 c-8.244,-1.036 -16.288,-3.585 -23.648,-7.434 c-3.672,-1.921 -7.563,-4.128 -10.68,-6.889 c-2.982,-2.641 -4.807,-6.62 -7.3420000000000005,-9.751 c-1.62,-2.09 -1.7400000000000002,-4.84 -3.07,-7.04 c-0.0070000000000000695,-0.011000000000000105 -1.6800000000000006,6.063 -1.747,6.534 c-0.436000000000002,3.078 -1.134,6.147 -2.581,8.922 c-2.199,4.219 -5.906,7.415 -9.525,10.503 c-3.253,2.775 -6.505,5.551 -9.758000000000001,8.326 c-1.444,1.232 -3.791,3.7720000000000002 -5.916,3.3040000000000003 c-2.8850000000000002,-0.6360000000000045 -2.161,-4.3950000000000005 -2.171,-6.61 c-0.04300000000000034,-9.965 -0.054000000000000443,-20.074 2.124,-29.852 c1.496,-6.715 4.6400000000000015,-12.833 8.647,-18.385 c1.661,-2.3 3.496,-5.073 5.792,-7.111 z" fill="#8BC43F" id="svg_24" class=""/><path d="m1945.1000028610229,1416.3 c1.3800000000000001,0.11000000000000022 2.87,0.04000000000000011 4.27,0.46 c3.43,3.91 6.12,8.48 10.07,11.93 c2.75,2.1 6.4,2.12 9.45,3.66 c12.722,6.316 21.546,18.65 25.493,32.085 c2.5940000000000003,8.83 3.033,18.236 1.709,27.326 c-0.16600000000000126,1.139 -0.375000000000002,2.313 -1.011,3.273 c-2.6980000000000004,4.074 -10.438,-0.06100000000000042 -13.428,-1.7550000000000003 c-4.462,-2.527 -9.541,-4.881 -13.531,-8.018 c-4.834,-3.8 -8.958,-8.508 -12.047,-13.826 c-3.673,-6.323 -5.872,-13.487 -6.433,-20.774 c-0.268,-3.474 -0.16600000000000126,-6.846 0.6740000000000052,-10.225 c0.8130000000000006,-3.27 2.7110000000000003,-6.511 1.504,-9.945 c-0.3900000000000023,-4.29 -4.37,-6.43 -6.7,-9.59 c-0.2400000000000002,-1.541 -0.1,-3.091 -0.020000000000000143,-4.601 z" fill="#8BC43F" id="svg_25" class=""/></g></svg>