<?xml version="1.0" encoding="UTF-8"?>
<!DOCTYPE svg  PUBLIC '-//W3C//DTD SVG 1.1//EN'  'http://www.w3.org/Graphics/SVG/1.1/DTD/svg11.dtd'>
<svg enable-background="new -36.0657 216.1066 1998.1061 647.9526" version="1.1" viewBox="-36.0657 216.1066 1998.1061 647.9526" xml:space="preserve" xmlns="http://www.w3.org/2000/svg">
	<path d="m709.53 264.34c13.58-2.21 27.2-4.74 40.99-4.93-39.76 6.14-79.08 15.85-116.64 30.37-34.64 13.38-67.35 31.67-96.9 54.15-27.5 20.57-52.13 44.58-78.26 66.8-29.41 24.42-61.56 45.37-94.79 64.19-71.26 40.01-147.44 70.58-224.97 96.07-33.43 10.83-67.14 20.86-101.21 29.5-5.03 1.13-9.96 2.87-15.13 3.19 19.43-4.74 38.52-10.83 57.7-16.49 81.24-24.99 161.18-55.1 236.65-94.4 53.26-27.86 104.34-60.56 149.12-100.84 10.67-9.24 20.29-19.61 31.1-28.71 59.83-51.84 134.73-84.84 212.34-98.9z"/>
	<path d="m897.98 270.67c86.16-5.65 172.66 1.03 258.01 13.1 22.31 1.71 43.15 10.28 64.16 17.26 65.83 22.58 130.96 47.42 194.1 76.73-53.92-4.82-108.1-6.41-162.23-6.55-64.69-0.29-129.37 1.6-193.97 4.79-15.38 0.85-30.94 1.34-46.15-1.48-12.08-2.24-23.99-6.84-33.45-14.85-25.71-23.05-50.13-47.68-77.9-68.31-4.8-3.78-10.78-6.37-14.22-11.62-1.33-1.75-1.57-4.62 0.46-5.95 3.21-2.34 7.36-2.67 11.19-3.12z"/>
	<path d="m760.04 286.34c21.99-2.26 44.53-1.2 65.82 5.1 28.32 8.07 53.87 24.39 74.66 45.07 17.47 17.24 31.66 37.54 43.53 58.95-85.14 3.45-170.29 6.6-255.43 10.1-11.7-25.46-26.81-49.69-46.73-69.54-3.28-3.46-7.82-6.2-9.28-10.99-0.26-3.77 3.9-5.39 6.69-6.78 14.39-6.05 29.19-11.05 44.09-15.67 25.01-7.6 50.59-13.69 76.65-16.24z"/>
	<path d="m593.41 339.51c5.61-2.77 11.09-6.65 17.55-6.9 4.95 0.52 8.7599 4.18 12.49 7.15 10.93 9.85 19.43 22.03 27.5 34.24 4.49 6.96 8.77 14.05 12.72 21.34 1.34 2.65 2.87 5.89 1.53 8.84-1.98 3.03-6.05 2.68-9.21 2.77-23.34-0.31-46.68 0.1-70.01 0.79-22.33 0.99-44.72 2.2-66.81 5.79-8.04 1.4-16.19 2.92-23.67 6.31 17.02-29.05 43.58-51.39 72.78-67.56 8.16-4.67 16.7-8.61 25.13-12.77z"/>
	<path d="m1135 390.45c51.01-1.24 102.02-2.56 152.99-4.92 55-1.87 110.15-1.09 164.97 3.99 47.42 4.15 94.76 9.21 141.95 15.43 24.89 3.35 49.75 6.95 74.38 11.88 36.49 7.09 73.39 14.32 107.61 29.32 10.29 4.58 20.35 9.74 29.89 15.73-19.42-7.49-39.34-13.88-59.81-17.79-8.7-1.78-17.55-2.65-26.25-4.38-9.88-0.82-19.8 0.08-29.69-0.04-30.76 0.24-61.6 1.21-92.11 5.39-3.98 0.63-8.6 1.35-11.08 4.89-2.2 3.49-0.54 7.76 1.04 11.15 10.58 18.64 20.06 37.88 29.88 56.93 6.72 13.43 13.73 26.72 20.24 40.25-26.71-42.57-63.55-78.63-106.24-105.08-7.3-4.49-14.76-8.75-22.51-12.41-10.54-4.85-21.94-7.5-33.36-9.31-21.97-2.84-43.64-7.53-65.48-11.14-104.16-18.05-209.76-28.63-315.5-28.79 13.01-0.91 26.05-0.72 39.08-1.1z"/>
	<path d="m1395 448.24c16.5 3.46 33.13 9.46 45.8 20.96 7.34 6.53 12.76 15.24 15.1 24.8 1.55 6.28 0.74 13.33-3.15 18.63-4.7 6.48-12.21 10.24-19.65 12.66 6.8199-5.2 13.85-11.08 16.71-19.47 2.76-7.84 0.1799-16.49-4.62-22.95-7.5-10.24-18.14-17.62-28.92-24.03-6.8501-4-13.97-7.52-21.27-10.6z"/>
	<path d="m1712.2 448.18c4.58-0.57 9.23-0.8 13.84-0.3 21.77 4.39 43.79 8.17 64.95 15.13 6.1801 2.04 12.37 4.53 17.42 8.75 6.74 5.31 11.06 13.04 13.83 21.05 4.89 14.35 10.01 28.66 13.54 43.42 1.4299 6.3 3.0599 13.33-0.22 19.35-1.89 3.87-6.37 5.78-10.52 5.51-41.59-3.16-83.29-4.8-124.99-5.47-10.68-0.44-21.72 1.02-32.01-2.53-11.56-3.98-19.98-13.54-26.79-23.27-11.15-16.22-21.1-33.24-30.36-50.58-2.87-5.86-5.55-12.58-3.88-19.17 1.3101-4.83 6.49-6.98 11.07-7.29 31.28-3.08 62.76-3.05 94.12-4.6z"/>
	<path d="m1369.2 449.26c16.28-1.3 31.69 6.07 45.32 14.19 8.7 5.3 17.14 11.54 23.03 19.99 4.79 6.86 7.25 15.58 5.7001 23.9-2.25 7.49-9.0901 12.67-16.36 14.84-9.28 2.74-19.23 2.36-28.65 0.56-22.29-4.32-41.55-20.5-50.58-41.18-2.8099-6.21-3.23-14.02 1.25-19.56 5.11-6.21 11.95-12 20.29-12.74z"/>
	<path d="m1475.5 449.69c16.11-2.74 32.26 3.58 45.35 12.63 8.3799 5.73 15.8 12.73 22.66 20.17 6.28 6.46 10.29 14.88 12.5 23.55 1.54 6.97 1.64 15.06-2.9399 20.97-5.4 6.82-14.73 9.02-23.04 8.84-22.3-2.12-43.47-14.2-56.63-32.33-4.79-6.51-8.65-13.7-11.55-21.23-2.3501-6.92-2.9901-14.77-0.0701-21.62 2.3899-5.64 7.6998-9.88 13.72-10.98z"/>
	<path d="m1512.9 452.12c14.2 7.71 28.39 15.8 40.59 26.52 6.14 5.57 12.04 11.82 15.29 19.58 2.51 5.8 2.8 12.76-0.1 18.47-2.2 4.69-6.1 8.25-10.12 11.38 4.1801-7.6 5.2001-16.83 2.4301-25.08-4.26-13.2-13.96-23.71-24.03-32.84-7.4399-6.77-15.84-12.31-24.06-18.03z"/>
	<path d="m1826.4 482.31c0.4-0.22 1.21-0.65 1.62-0.87 3.9401 0.84 6.99 3.82 9.8301 6.53 8.25 8.74 13.98 19.5 18.83 30.41 3.21 7.61 6.77 15.24 7.92 23.5 0.35 3.54 0.6799 7.74-1.9401 10.55-1.66 1.07-3.46-0.27-4.6899-1.32-10.71-10.55-16.05-25.04-22.81-38.17-3.5599-7.63-7.41-15.24-9.4-23.46-0.36-2.33-1.06-5.2 0.64-7.17z"/>
	<path d="m1107.6 508.35c18.03-3.23 37.1-3.09 54.35 3.64 15.15 5.69 28.24 16.06 38.33 28.61 12.58 15.64 20.97 34.28 26.55 53.46 6 21.06 8.88 43.01 8.58 64.9-1.12 19.5-3.71 38.99-8.87 57.86-4.88 17.7-12.16 34.98-23.3 49.69-9.79 12.99-22.83 23.67-37.9 29.94-17.08 7.23-36.17 8.96-54.47 6.57 15.93-1.54 31.71-6.69 44.6-16.36 14.61-10.8 25.13-26.28 32.33-42.79 9.3301-21.46 14-44.64 16.71-67.78 2.9299-22.54 2.5099-45.42-0.3101-67.94-2.46-18.57-6.99-37.11-15.63-53.84-7.42-14.37-18.32-27.22-32.4-35.41-14.53-8.71-31.82-11.63-48.57-10.55z"/>
	<path d="m505 558.48c8.36 14.35 17.35 28.56 29.12 40.41 6.86 6.78 14.82 12.61 23.88 16.08 9.52 3.76 19.82 4.71 29.94 5.44 122.66 7.45 245.35 14.41 368.02 21.58 7.44 0.69 14.97 0.32 22.35 1.63-58.11-1.29-116.25-1.84-174.37-2.9-74.65-1.06-149.29-2.33-223.94-3.4-9.66-0.41-19.49 0.49-29-1.55-14.27-3.2-25.4-15.06-29.82-28.7-5.32-16.22-11.11-32.3-16.18-48.59z"/>
	<path d="m592.99 660.06c4.31-0.51 8.59-1.54 12.96-1.5 81 3.19 162.03 6.1 243.06 8.5 29.34 0.73 58.68 1.72 88.04 1.81 3.28 0.07 6.56 0.38 9.82 0.81-11.64-0.31-23.25 0.98-34.88 1.13-73.63 2.99-147.34 3.18-221.01 2.86-58.07-0.29-116.13-1.3-174.17-2.67 25.36-3.86 50.79-7.26 76.18-10.94z"/>
	<path d="m1273.8 669c0.6799-1.76 2.63-1.46 4.1499-1.46 43.45 2.08 86.95 3.95 130.46 2.93 6.7999 13.42 18.43 24.44 32.64 29.63 9.1899 3.52 19.12 4.92 28.95 4.48 78.54 4.97 157.24 9.06 235.98 7.94 28.04-1.05 56.05-2.73 83.99-5.31 21.72-2.14 43.44-4.7 64.81-9.22 9.1899-2.04 18.41-4.28 27.13-7.94 4.51-1.99 9.2799-4.24 12.03-8.56 4.5 5.77 6.51 12.95 8.5601 19.86 1.9 6.53 0.64 13.99-3.86 19.19-6.5 7.62-16.12 11.48-25.37 14.61-19.3 6.11-39.48 8.7599-59.52 11.12-52.03 5.48-104.38 7.03-156.64 8.79-108.1 3.54-216.38 0.34-324.13-8.79-17.37-1.57-34.73-3.17-52.04-5.22-1.35-0.38-3.58-0.17-3.8099-2 0.0499-23.37-1.2001-46.78-3.3302-70.05z"/>
	<path d="m1198 785.95c29.3-25.25 44.32-64.07 45.97-102.13 2.6 10.51 2.49 21.44 3.1799 32.19 0.3401 14.3 0.8 28.64-0.0299 42.93 0.61 2.95 4.2899 3.75 6.85 4.32 12.46 1.89 25.12 1.72 37.68 2.7-3.5399 5.91-8.87 10.43-13.69 15.25-7.45 7.16-15.23 13.99-23.21 20.56-9.15 7.45-21.68 6.93-32.76 8.34-23.83 1.69-47.85 3.48-71.7 1.28 17.42-5.08 33.96-13.52 47.71-25.44z"/>
	<path d="m328.85 703.46c22.08 1.71 44.06 4.53 66.12 6.57 101.94 10.29 203.94 20.1 306.02 28.99 68.28 5.86 136.59 11.47 205.01 15.42 16.79 0.67 33.55 1.94 50.35 2.07-27.11 0.39-54.23-0.35-81.34-0.55-68.68-0.57-137.35-1.13-206.03-1.41-4.92-0.11-9.84 0.16-14.74-0.2-108.48-16.88-216.9-34.11-325.39-50.89z"/>
	<path d="m1716 771.41c21.25-0.59 42.48-1.56 63.66-3.35-3.6399 6.65-9.84 11.34-15.52 16.14-26.35 20.54-58.57 34.4-92.12 36.35-21.41 1.22-43.07-3-62.45-12.17-18.7-8.71-35.28-21.54-49.55-36.35 51.99 0.64 104 0.75 155.98-0.62z"/>
</svg>
